<?xml version="1.0" encoding="UTF-8" standalone="no"?>
<svg
   xmlns:dc="http://purl.org/dc/elements/1.1/"
   xmlns:cc="http://creativecommons.org/ns#"
   xmlns:rdf="http://www.w3.org/1999/02/22-rdf-syntax-ns#"
   xmlns:svg="http://www.w3.org/2000/svg"
   xmlns="http://www.w3.org/2000/svg"
   xmlns:sodipodi="http://sodipodi.sourceforge.net/DTD/sodipodi-0.dtd"
   xmlns:inkscape="http://www.inkscape.org/namespaces/inkscape"
   width="28.619537mm"
   height="43.8629mm"
   viewBox="0 0 28.619537 43.8629"
   version="1.1"
   id="svg28623"
   inkscape:version="1.0.2 (e86c870879, 2021-01-15, custom)"
   sodipodi:docname="durum-wheat.svg">
  <defs
     id="defs28617" />
  <sodipodi:namedview
     id="base"
     pagecolor="#ffffff"
     bordercolor="#666666"
     borderopacity="1.0"
     inkscape:pageopacity="0.0"
     inkscape:pageshadow="2"
     inkscape:zoom="0.35"
     inkscape:cx="148.36988"
     inkscape:cy="111.46195"
     inkscape:document-units="mm"
     inkscape:current-layer="layer1"
     inkscape:document-rotation="0"
     showgrid="false"
     inkscape:window-width="902"
     inkscape:window-height="1021"
     inkscape:window-x="1004"
     inkscape:window-y="45"
     inkscape:window-maximized="0" />
  <metadata
     id="metadata28620">
    <rdf:RDF>
      <cc:Work
         rdf:about="">
        <dc:format>image/svg+xml</dc:format>
        <dc:type
           rdf:resource="http://purl.org/dc/dcmitype/StillImage" />
        <dc:title></dc:title>
      </cc:Work>
    </rdf:RDF>
  </metadata>
  <g
     inkscape:label="Layer 1"
     inkscape:groupmode="layer"
     id="layer1"
     transform="translate(-66.577136,-118.67569)">
    <g
       id="g23624"
       inkscape:label="DurumWheat"
       transform="translate(-83.247658,51.744303)">
      <path
         style="fill:none;stroke:#000000;stroke-width:1.165;stroke-linecap:butt;stroke-linejoin:miter;stroke-miterlimit:4;stroke-dasharray:none;stroke-opacity:1"
         d="m 166.06239,110.65118 -1.34782,-5.31787"
         id="path23621" />
      <g
         id="g23663">
        <path
           style="fill:#acab6f;fill-opacity:1;stroke:#000000;stroke-width:0.665;stroke-linecap:butt;stroke-linejoin:miter;stroke-miterlimit:4;stroke-dasharray:none;stroke-opacity:1"
           d="m 164.33894,104.20614 c -3.41347,-0.42964 -4.28772,-2.81721 -4.50926,-5.708074 2.39462,0.527199 4.0705,2.163284 4.50926,5.708074 z"
           id="path23626"
           sodipodi:nodetypes="ccc" />
        <path
           style="fill:#acab6f;fill-opacity:1;stroke:#000000;stroke-width:0.665;stroke-linecap:butt;stroke-linejoin:miter;stroke-miterlimit:4;stroke-dasharray:none;stroke-opacity:1"
           d="m 165.0406,104.45425 c -0.43243,-3.41312 1.3364,-4.749251 4.08689,-5.25384 0.0847,2.4505 -0.76245,3.94762 -4.08689,5.25384 z"
           id="path23629"
           sodipodi:nodetypes="ccc" />
        <path
           style="fill:#acab6f;fill-opacity:1;stroke:#000000;stroke-width:0.665;stroke-linecap:butt;stroke-linejoin:miter;stroke-miterlimit:4;stroke-dasharray:none;stroke-opacity:1"
           d="m 163.93247,99.309898 c -3.21161,-0.716737 -3.64839,-3.276644 -3.53,-6.205315 1.87181,0.977709 3.77965,1.89888 3.53,6.205315 z"
           id="path23631"
           sodipodi:nodetypes="ccc" />
        <path
           style="fill:#acab6f;fill-opacity:1;stroke:#000000;stroke-width:0.665;stroke-linecap:butt;stroke-linejoin:miter;stroke-miterlimit:4;stroke-dasharray:none;stroke-opacity:1"
           d="m 164.66795,99.135353 c 0.65054,-3.435857 2.80735,-3.983229 5.43918,-3.619622 -1.03154,2.462379 -2.821,3.706827 -5.43918,3.619622 z"
           id="path23633"
           sodipodi:nodetypes="ccc" />
        <path
           style="fill:#acab6f;fill-opacity:1;stroke:#000000;stroke-width:0.665;stroke-linecap:butt;stroke-linejoin:miter;stroke-miterlimit:4;stroke-dasharray:none;stroke-opacity:1"
           d="m 164.77749,95.047178 c -2.80037,-1.114906 -3.42284,-3.467424 -2.62175,-6.628897 2.13957,0.964456 3.02857,3.159248 2.62175,6.628897 z m 0.62805,0.181098 c 1.1497,-3.711812 3.15723,-4.07166 5.34789,-3.715895 -1.26282,3.121169 -3.31595,3.380171 -5.34789,3.715895 z"
           id="path23635"
           sodipodi:nodetypes="cccccc" />
        <path
           style="fill:#acab6f;fill-opacity:1;stroke:#000000;stroke-width:0.665;stroke-linecap:butt;stroke-linejoin:miter;stroke-miterlimit:4;stroke-dasharray:none;stroke-opacity:1"
           d="m 165.53745,90.528605 c 1.232,-3.281423 0.23363,-5.369939 -1.59307,-7.015427 -1.31262,3.030318 -0.8915,5.410035 1.59307,7.015427 z"
           id="path23637"
           sodipodi:nodetypes="ccc" />
        <path
           style="fill:#acab6f;fill-opacity:1;stroke:#000000;stroke-width:0.665;stroke-linecap:butt;stroke-linejoin:miter;stroke-miterlimit:4;stroke-dasharray:none;stroke-opacity:1"
           d="m 166.81327,90.90948 c 2.49304,0.267067 4.51427,-0.485566 5.78891,-2.85174 -2.59471,-0.710344 -4.67847,-0.144672 -5.78891,2.85174 z"
           id="path23639"
           sodipodi:nodetypes="ccc" />
        <path
           style="fill:#acab6f;fill-opacity:1;stroke:#000000;stroke-width:0.665;stroke-linecap:butt;stroke-linejoin:miter;stroke-miterlimit:4;stroke-dasharray:none;stroke-opacity:1"
           d="m 167.0457,86.11031 c -1.93765,-1.955736 -2.38733,-4.284712 -0.62604,-7.16829 2.14342,2.64049 1.90284,4.971623 0.62604,7.16829 z"
           id="path23641"
           sodipodi:nodetypes="ccc" />
        <path
           style="fill:#acab6f;fill-opacity:1;stroke:#000000;stroke-width:0.665;stroke-linecap:butt;stroke-linejoin:miter;stroke-miterlimit:4;stroke-dasharray:none;stroke-opacity:1"
           d="m 168.32151,86.828011 c 1.56419,-1.972833 3.35883,-3.367175 6.24079,-2.031984 -2.08786,2.491766 -4.16524,2.479957 -6.24079,2.031984 z"
           id="path23643"
           sodipodi:nodetypes="ccc" />
        <path
           style="fill:#acab6f;fill-opacity:1;stroke:#000000;stroke-width:0.665;stroke-linecap:butt;stroke-linejoin:miter;stroke-miterlimit:4;stroke-dasharray:none;stroke-opacity:1"
           d="m 169.50932,81.987529 c -2.09222,-2.398937 -1.42444,-4.781704 0.38613,-7.157776 1.8456,3.291024 1.25465,5.465041 -0.38613,7.157776 z"
           id="path23645"
           sodipodi:nodetypes="ccc" />
        <path
           style="fill:#acab6f;fill-opacity:1;stroke:#000000;stroke-width:0.665;stroke-linecap:butt;stroke-linejoin:miter;stroke-miterlimit:4;stroke-dasharray:none;stroke-opacity:1"
           d="m 170.78582,82.779657 c 2.50689,-3.058553 4.4812,-2.285141 6.40314,-1.134923 -2.05284,1.620055 -4.16039,2.407089 -6.40314,1.134923 z"
           id="path23647"
           sodipodi:nodetypes="ccc" />
        <path
           style="fill:#acab6f;fill-opacity:1;stroke:#000000;stroke-width:0.665;stroke-linecap:butt;stroke-linejoin:miter;stroke-miterlimit:4;stroke-dasharray:none;stroke-opacity:1"
           d="m 172.23673,80.036425 c 0.82837,-2.856074 2.40735,-4.915224 5.72603,-5.1273 -1.01824,2.876156 -2.82125,4.723754 -5.72603,5.1273 z"
           id="path23649"
           sodipodi:nodetypes="ccc" />
      </g>
      <path
         style="fill:none;stroke:#000000;stroke-width:1.165;stroke-linecap:butt;stroke-linejoin:miter;stroke-miterlimit:4;stroke-dasharray:none;stroke-opacity:1"
         d="m 156.42324,102.9734 -1.34782,-5.317866"
         id="path23665" />
      <g
         id="g23691"
         transform="translate(-9.6391496,-7.6777756)">
        <path
           style="font-variation-settings:normal;opacity:1;vector-effect:none;fill:#acab6f;fill-opacity:1;stroke:#000000;stroke-width:0.665;stroke-linecap:butt;stroke-linejoin:miter;stroke-miterlimit:4;stroke-dasharray:none;stroke-dashoffset:0;stroke-opacity:1;stop-color:#000000;stop-opacity:1"
           d="m 164.33894,104.20614 c -3.41347,-0.42964 -4.28772,-2.81721 -4.50926,-5.708074 2.39462,0.527199 4.0705,2.163284 4.50926,5.708074 z"
           id="path23667"
           sodipodi:nodetypes="ccc" />
        <path
           style="font-variation-settings:normal;opacity:1;vector-effect:none;fill:#acab6f;fill-opacity:1;stroke:#000000;stroke-width:0.665;stroke-linecap:butt;stroke-linejoin:miter;stroke-miterlimit:4;stroke-dasharray:none;stroke-dashoffset:0;stroke-opacity:1;stop-color:#000000;stop-opacity:1"
           d="m 165.0109,104.14245 c -0.43243,-3.41312 1.3364,-4.749258 4.08689,-5.253847 0.0847,2.450507 -0.76245,3.947627 -4.08689,5.253847 z"
           id="path23669"
           sodipodi:nodetypes="ccc" />
        <path
           style="font-variation-settings:normal;opacity:1;vector-effect:none;fill:#acab6f;fill-opacity:1;stroke:#000000;stroke-width:0.665;stroke-linecap:butt;stroke-linejoin:miter;stroke-miterlimit:4;stroke-dasharray:none;stroke-dashoffset:0;stroke-opacity:1;stop-color:#000000;stop-opacity:1"
           d="m 164.06042,99.504657 c -3.21161,-0.716737 -3.64839,-3.276644 -3.53,-6.205315 1.87181,0.977709 3.77965,1.89888 3.53,6.205315 z"
           id="path23671"
           sodipodi:nodetypes="ccc" />
        <path
           style="font-variation-settings:normal;opacity:1;vector-effect:none;fill:#acab6f;fill-opacity:1;stroke:#000000;stroke-width:0.665;stroke-linecap:butt;stroke-linejoin:miter;stroke-miterlimit:4;stroke-dasharray:none;stroke-dashoffset:0;stroke-opacity:1;stop-color:#000000;stop-opacity:1"
           d="m 164.77732,99.553275 c 0.0872,-3.495812 2.12733,-4.38427 4.78333,-4.450403 -0.62039,2.596631 -2.18543,4.113699 -4.78333,4.450403 z"
           id="path23673"
           sodipodi:nodetypes="ccc" />
        <path
           style="font-variation-settings:normal;opacity:1;vector-effect:none;fill:#acab6f;fill-opacity:1;stroke:#000000;stroke-width:0.665;stroke-linecap:butt;stroke-linejoin:miter;stroke-miterlimit:4;stroke-dasharray:none;stroke-dashoffset:0;stroke-opacity:1;stop-color:#000000;stop-opacity:1"
           d="m 164.58893,95.025254 c -2.80037,-1.114906 -3.42284,-3.467424 -2.62175,-6.628897 2.13957,0.964456 3.02857,3.159248 2.62175,6.628897 z m 0.62805,0.181098 c 1.1497,-3.711812 3.15723,-4.07166 5.34789,-3.715895 -1.26282,3.121169 -3.31595,3.380171 -5.34789,3.715895 z"
           id="path23675"
           sodipodi:nodetypes="cccccc" />
        <path
           style="font-variation-settings:normal;opacity:1;vector-effect:none;fill:#acab6f;fill-opacity:1;stroke:#000000;stroke-width:0.665;stroke-linecap:butt;stroke-linejoin:miter;stroke-miterlimit:4;stroke-dasharray:none;stroke-dashoffset:0;stroke-opacity:1;stop-color:#000000;stop-opacity:1"
           d="m 165.66478,90.669336 c 1.232,-3.281423 0.23363,-5.369939 -1.59307,-7.015427 -1.31262,3.030318 -0.8915,5.410035 1.59307,7.015427 z"
           id="path23677"
           sodipodi:nodetypes="ccc" />
        <path
           style="font-variation-settings:normal;opacity:1;vector-effect:none;fill:#acab6f;fill-opacity:1;stroke:#000000;stroke-width:0.665;stroke-linecap:butt;stroke-linejoin:miter;stroke-miterlimit:4;stroke-dasharray:none;stroke-dashoffset:0;stroke-opacity:1;stop-color:#000000;stop-opacity:1"
           d="m 166.34884,90.802594 c 2.49304,0.267067 4.51427,-0.485566 5.78891,-2.85174 -2.59471,-0.710344 -4.67847,-0.144672 -5.78891,2.85174 z"
           id="path23679"
           sodipodi:nodetypes="ccc" />
        <path
           style="font-variation-settings:normal;opacity:1;vector-effect:none;fill:#acab6f;fill-opacity:1;stroke:#000000;stroke-width:0.665;stroke-linecap:butt;stroke-linejoin:miter;stroke-miterlimit:4;stroke-dasharray:none;stroke-dashoffset:0;stroke-opacity:1;stop-color:#000000;stop-opacity:1"
           d="m 167.31842,86.439821 c -1.93765,-1.955736 -2.38733,-4.284712 -0.62604,-7.16829 2.14342,2.64049 1.90284,4.971623 0.62604,7.16829 z"
           id="path23681"
           sodipodi:nodetypes="ccc" />
        <path
           style="font-variation-settings:normal;opacity:1;vector-effect:none;fill:#acab6f;fill-opacity:1;stroke:#000000;stroke-width:0.665;stroke-linecap:butt;stroke-linejoin:miter;stroke-miterlimit:4;stroke-dasharray:none;stroke-dashoffset:0;stroke-opacity:1;stop-color:#000000;stop-opacity:1"
           d="m 167.99628,86.6977 c 1.56419,-1.972833 3.35883,-3.367175 6.24079,-2.031984 -2.08786,2.491766 -4.16524,2.479957 -6.24079,2.031984 z"
           id="path23683"
           sodipodi:nodetypes="ccc" />
        <path
           style="font-variation-settings:normal;opacity:1;vector-effect:none;fill:#acab6f;fill-opacity:1;stroke:#000000;stroke-width:0.665;stroke-linecap:butt;stroke-linejoin:miter;stroke-miterlimit:4;stroke-dasharray:none;stroke-dashoffset:0;stroke-opacity:1;stop-color:#000000;stop-opacity:1"
           d="m 169.64601,82.520337 c -2.09222,-2.398937 -1.42444,-4.781704 0.38613,-7.157776 1.8456,3.291024 1.25465,5.465041 -0.38613,7.157776 z"
           id="path23685"
           sodipodi:nodetypes="ccc" />
        <path
           style="font-variation-settings:normal;opacity:1;vector-effect:none;fill:#acab6f;fill-opacity:1;stroke:#000000;stroke-width:0.665;stroke-linecap:butt;stroke-linejoin:miter;stroke-miterlimit:4;stroke-dasharray:none;stroke-dashoffset:0;stroke-opacity:1;stop-color:#000000;stop-opacity:1"
           d="m 170.32036,82.849394 c 2.50689,-3.058553 4.4812,-2.285141 6.40314,-1.134923 -2.05284,1.620055 -4.16039,2.407089 -6.40314,1.134923 z"
           id="path23687"
           sodipodi:nodetypes="ccc" />
        <path
           style="font-variation-settings:normal;opacity:1;vector-effect:none;fill:#acab6f;fill-opacity:1;stroke:#000000;stroke-width:0.665;stroke-linecap:butt;stroke-linejoin:miter;stroke-miterlimit:4;stroke-dasharray:none;stroke-dashoffset:0;stroke-opacity:1;stop-color:#000000;stop-opacity:1"
           d="m 171.91995,80.100418 c 0.82837,-2.856074 2.40735,-4.915224 5.72603,-5.1273 -1.01824,2.876156 -2.82125,4.723754 -5.72603,5.1273 z"
           id="path23689"
           sodipodi:nodetypes="ccc" />
      </g>
    </g>
  </g>
</svg>
