<?xml version="1.0" encoding="UTF-8" standalone="no"?>
<svg
   xmlns:dc="http://purl.org/dc/elements/1.1/"
   xmlns:cc="http://creativecommons.org/ns#"
   xmlns:rdf="http://www.w3.org/1999/02/22-rdf-syntax-ns#"
   xmlns:svg="http://www.w3.org/2000/svg"
   xmlns="http://www.w3.org/2000/svg"
   xmlns:sodipodi="http://sodipodi.sourceforge.net/DTD/sodipodi-0.dtd"
   xmlns:inkscape="http://www.inkscape.org/namespaces/inkscape"
   width="35.433052mm"
   height="45.422157mm"
   viewBox="0 0 35.433052 45.422157"
   version="1.1"
   id="svg31595"
   inkscape:version="1.0.2 (e86c870879, 2021-01-15, custom)"
   sodipodi:docname="extra-virgin.svg">
  <defs
     id="defs31589" />
  <sodipodi:namedview
     id="base"
     pagecolor="#ffffff"
     bordercolor="#666666"
     borderopacity="1.0"
     inkscape:pageopacity="0.0"
     inkscape:pageshadow="2"
     inkscape:zoom="0.35"
     inkscape:cx="189.81724"
     inkscape:cy="200.12284"
     inkscape:document-units="mm"
     inkscape:current-layer="layer1"
     inkscape:document-rotation="0"
     showgrid="false"
     inkscape:window-width="902"
     inkscape:window-height="1021"
     inkscape:window-x="1004"
     inkscape:window-y="45"
     inkscape:window-maximized="0" />
  <metadata
     id="metadata31592">
    <rdf:RDF>
      <cc:Work
         rdf:about="">
        <dc:format>image/svg+xml</dc:format>
        <dc:type
           rdf:resource="http://purl.org/dc/dcmitype/StillImage" />
        <dc:title></dc:title>
      </cc:Work>
    </rdf:RDF>
  </metadata>
  <g
     inkscape:label="Layer 1"
     inkscape:groupmode="layer"
     id="layer1"
     transform="translate(-55.610856,-95.217498)">
    <g
       id="g24124"
       inkscape:label="ExtraVirgin"
       transform="translate(-31.276957,-142.89696)">
      <path
         style="fill:#c1e4e7;fill-opacity:1;stroke:#000000;stroke-width:0.865;stroke-linecap:butt;stroke-linejoin:miter;stroke-miterlimit:4;stroke-dasharray:none;stroke-opacity:1"
         d="m 93.267246,283.00013 12.817364,0.1029 c 1.91819,-1.3251 1.35284,-2.22601 -0.0355,-2.98636 l -5.80584,0.0548 c 1.51112,0.002 3.06196,0.20897 4.09751,-0.13782 5.1015,-1.70841 5.49267,-8.01388 5.9366,-11.78214 -1.41939,-8.55285 -6.42023,-11.29425 -6.9203,-17.8264 -0.27514,-4.1089 0.51251,-5.62778 2.55287,-7.91687 l -10.487531,-0.1635 c 0.475225,4.63385 1.108555,9.54217 -0.880033,13.2325 -2.072363,3.8458 -5.306111,7.31833 -5.685771,13.38251 0.294198,3.08013 0.598636,10.71198 7.906615,10.91255 -1.110871,-0.0109 -2.464438,-0.16371 -3.176416,0.12397 -1.994839,0.806 -2.068307,2.05104 -0.319568,3.00386 z"
         id="path24121"
         sodipodi:nodetypes="ccccsccccsccsc" />
      <path
         style="font-variation-settings:normal;opacity:1;vector-effect:none;fill:#a4c7ca;fill-opacity:1;stroke:#000000;stroke-width:0.865;stroke-linecap:butt;stroke-linejoin:miter;stroke-miterlimit:4;stroke-dasharray:none;stroke-dashoffset:0;stroke-opacity:1;stop-color:#000000;stop-opacity:1"
         d="m 95.73303,244.82807 -4.107444,0.008 c -3.331791,0.55558 -4.761762,2.50607 -4.179388,5.93252 1.758533,3.07448 3.462678,5.81062 5.1313,8.32578 l 1.582131,-2.7778 -4.071207,-6.19669 c -0.550077,-1.42246 -0.195555,-2.38785 1.686748,-2.58131 l 4.120884,0.0981 z"
         id="path24128"
         sodipodi:nodetypes="ccccccccc" />
      <path
         style="fill:#d8bc80;fill-opacity:1;stroke:#000000;stroke-width:1.065;stroke-linecap:butt;stroke-linejoin:round;stroke-miterlimit:4;stroke-dasharray:none;stroke-opacity:1"
         d="m 102.16695,242.29729 c 0.16365,-1.46342 0.32194,-2.8762 0.22634,-3.39845 -2.1388,-0.49063 -3.733638,-0.13066 -5.485804,-0.0167 -0.272072,0.92029 -0.08245,1.93072 0.333313,3.28645 z"
         id="path24130"
         sodipodi:nodetypes="ccccc" />
      <path
         style="fill:#d0e152;fill-opacity:1;stroke:#000000;stroke-width:0.465;stroke-linecap:butt;stroke-linejoin:miter;stroke-miterlimit:4;stroke-dasharray:none;stroke-opacity:1"
         d="m 95.759592,277.81115 c 2.871769,0.0725 5.674298,0.10837 7.995188,-0.11076 2.18858,-2.03629 4.59251,-3.75774 4.51055,-9.11373 -1.19415,-7.80504 -7.50842,-11.38473 -7.23659,-18.95983 -1.00661,-0.38721 -2.065223,-0.30539 -3.143391,-0.0472 0.17563,10.37239 -6.813203,10.66598 -6.777548,20.70644 0.388677,2.79829 1.106238,5.51451 4.651791,7.52508 z"
         id="path24132"
         sodipodi:nodetypes="ccccccc" />
      <g
         id="g24169"
         transform="matrix(0.84965344,0.10716311,-0.10716311,0.84965344,52.154962,30.07561)">
        <path
           style="fill:#9ed452;fill-opacity:1;stroke:#000000;stroke-width:0.965;stroke-linecap:butt;stroke-linejoin:miter;stroke-miterlimit:4;stroke-dasharray:none;stroke-opacity:1"
           d="m 112.13011,283.09845 c -5.67055,-1.11681 -6.15865,-10.62643 -0.22789,-13.14191 5.00354,-0.21136 8.08181,10.65862 0.22789,13.14191 z"
           id="path24165"
           sodipodi:nodetypes="ccc" />
        <path
           style="fill:#bb7752;fill-opacity:1;stroke:#000000;stroke-width:0.965;stroke-linecap:butt;stroke-linejoin:miter;stroke-miterlimit:4;stroke-dasharray:none;stroke-opacity:1"
           d="m 109.74007,271.4317 c 1.96798,-2.29967 3.65667,-1.62288 5.26849,-0.12676 -1.43822,0.86249 -3.08297,1.19218 -5.26849,0.12676 z"
           id="path24167"
           sodipodi:nodetypes="ccc" />
      </g>
      <g
         id="g24161"
         transform="rotate(-15.299771,112.78017,274.35293)">
        <path
           style="fill:#9ed452;fill-opacity:1;stroke:#000000;stroke-width:0.965;stroke-linecap:butt;stroke-linejoin:miter;stroke-miterlimit:4;stroke-dasharray:none;stroke-opacity:1"
           d="m 112.13011,283.09845 c -5.67055,-1.11681 -6.15865,-10.62643 -0.22789,-13.14191 5.00354,-0.21136 8.08181,10.65862 0.22789,13.14191 z"
           id="path24158"
           sodipodi:nodetypes="ccc" />
        <path
           style="fill:#bb7752;fill-opacity:1;stroke:#000000;stroke-width:0.965;stroke-linecap:butt;stroke-linejoin:miter;stroke-miterlimit:4;stroke-dasharray:none;stroke-opacity:1"
           d="m 109.74007,271.4317 c 1.96798,-2.29967 3.65667,-1.62288 5.26849,-0.12676 -1.43822,0.86249 -3.08297,1.19218 -5.26849,0.12676 z"
           id="path24163"
           sodipodi:nodetypes="ccc" />
      </g>
    </g>
  </g>
</svg>
