<svg width="72.094" height="126.81" viewBox="0 0 19.075 33.552" xml:space="preserve" xmlns="http://www.w3.org/2000/svg"><path style="fill:#ded955;fill-opacity:1;stroke:#000;stroke-width:3.96875;stroke-linecap:butt;stroke-linejoin:miter;stroke-dasharray:none;stroke-opacity:1" d="M446.435 32.117c-28.624.066-59.633 14.686-78.373 35.097-15.326 16.692-24.747 49.612-23.826 76.213 1.093 31.592 21.446 57.034 34.484 88.34 10.618 25.496 14.337 82.034 23.33 84.505 20.876 5.737 70.7 7.381 85.025.2 8.876-4.45 10.997-59.277 23.22-86.521 13.223-29.476 34.684-58.246 34.556-90.554-.109-27.582-11.041-57.145-30.112-77.073-17.213-17.986-43.409-30.265-68.304-30.207Z" transform="translate(-31.895 -2.809) scale(.0932)"/><path style="fill:#f1807d;fill-opacity:1;stroke:#000;stroke-width:3.96875;stroke-linecap:butt;stroke-linejoin:miter;stroke-dasharray:none;stroke-opacity:1" d="M443.56 224.234c13.454-20.506 10.433-47.54-.392-49.895-5.717-.082-12.358 9.263-10.795 28.252 2.145 13.422 2.233 16.14 11.186 21.643z" transform="translate(-31.895 -2.809) scale(.0932)"/><path style="fill:#ccdc8a;fill-opacity:1;stroke:#000;stroke-width:3.96875;stroke-linecap:butt;stroke-linejoin:miter;stroke-dasharray:none;stroke-opacity:1" d="m444.515 319.262-1.31-100.18c-9.095-54.535-32.234-60.645-37.57-54.384-8.768 8.936-7.655 50.722 34.265 61.417 59.452-33.545 53.899-63.524 48.696-67.528-6.283-4.994-27.086-14.548-45.638 60.731z" transform="translate(-31.895 -2.809) scale(.0932)"/><path style="fill:#727272;fill-opacity:1;stroke:#000;stroke-width:3.96875;stroke-linecap:round;stroke-linejoin:round;stroke-dasharray:none;stroke-opacity:1" d="M410.103 351.862c-6.945-4.299-13.573-11.56.056-17.99l74.304.286c12.15 4.973 11.289 11.089.497 18.077 11.603 5.843 10.435 11.686-.03 17.53 11.21 6.369 12 13.498.336 18.264l-75.166.083c-12.663.014-9.327-19.667.085-18.03 6.253 1.088-18.63-6.567-.083-18.22z" transform="translate(-31.895 -2.809) scale(.0932)"/></svg>