<?xml version="1.0" encoding="UTF-8" standalone="no"?>
<svg
   xmlns:dc="http://purl.org/dc/elements/1.1/"
   xmlns:cc="http://creativecommons.org/ns#"
   xmlns:rdf="http://www.w3.org/1999/02/22-rdf-syntax-ns#"
   xmlns:svg="http://www.w3.org/2000/svg"
   xmlns="http://www.w3.org/2000/svg"
   xmlns:sodipodi="http://sodipodi.sourceforge.net/DTD/sodipodi-0.dtd"
   xmlns:inkscape="http://www.inkscape.org/namespaces/inkscape"
   width="39.622776mm"
   height="56.764454mm"
   viewBox="0 0 39.622776 56.764454"
   version="1.1"
   id="svg8074"
   inkscape:version="1.0.2 (e86c870879, 2021-01-15, custom)"
   sodipodi:docname="guard.svg">
  <defs
     id="defs8068" />
  <sodipodi:namedview
     id="base"
     pagecolor="#ffffff"
     bordercolor="#666666"
     borderopacity="1.0"
     inkscape:pageopacity="0.0"
     inkscape:pageshadow="2"
     inkscape:zoom="0.35"
     inkscape:cx="-216.5509"
     inkscape:cy="-147.01432"
     inkscape:document-units="mm"
     inkscape:current-layer="layer1"
     inkscape:document-rotation="0"
     showgrid="false"
     inkscape:window-width="902"
     inkscape:window-height="1021"
     inkscape:window-x="1004"
     inkscape:window-y="45"
     inkscape:window-maximized="0" />
  <metadata
     id="metadata8071">
    <rdf:RDF>
      <cc:Work
         rdf:about="">
        <dc:format>image/svg+xml</dc:format>
        <dc:type
           rdf:resource="http://purl.org/dc/dcmitype/StillImage" />
        <dc:title></dc:title>
      </cc:Work>
    </rdf:RDF>
  </metadata>
  <g
     inkscape:label="Layer 1"
     inkscape:groupmode="layer"
     id="layer1"
     transform="translate(-163.12909,-187.0642)">
    <path
       style="display:inline;opacity:0.994;fill:#554400;stroke:#000000;stroke-width:0.264583px;stroke-linecap:butt;stroke-linejoin:miter;stroke-opacity:1"
       d="m 173.18864,237.38228 c -0.29298,1.4328 -0.15894,3.37726 2.55051,4.31159 l 16.26875,0.0113 c 0,0 9.98623,0.44839 10.46335,-0.0219 1.18568,-1.13664 -5.09402,-1.70075 -5.09402,-1.70075 l -17.24223,0.0541 c -2.0244,-0.16153 -3.47233,-0.89787 -3.88561,-2.53057 z"
       id="path4280"
       sodipodi:nodetypes="cccccccc" />
    <path
       style="opacity:0.994;fill:#483e37;stroke:#000000;stroke-width:0.264583px;stroke-linecap:butt;stroke-linejoin:miter;stroke-opacity:1"
       d="m 180.63172,238.858 c 0,0 1.78419,-0.15789 1.81625,-0.0683 0.53214,1.89704 1.79693,1.85627 2.14652,2.46017 -0.25839,0.53797 -1.65521,-0.46232 -1.6788,-0.41459 -0.0528,0.0424 0.7213,1.30063 0.68902,1.32843 -0.10425,0.0544 -1.40358,-1.17435 -1.47672,-1.1156 -0.0868,0.0327 0.747,1.46633 0.44064,1.55204 -0.39137,0.0774 -2.00168,-1.86491 -1.93691,-3.74215 z"
       id="path4282"
       sodipodi:nodetypes="cccccccc" />
    <path
       style="opacity:0.994;fill:#483e37;stroke:#000000;stroke-width:0.264583px;stroke-linecap:butt;stroke-linejoin:miter;stroke-opacity:1"
       d="m 167.51975,237.81488 c 1.29911,-0.55435 1.53346,0.91432 1.53346,0.91432 0.2687,1.91224 -0.86017,2.86458 -1.73917,3.97442 -0.40294,-0.29662 0.53481,-1.48757 0.25301,-1.56811 -0.17478,-0.0963 -1.31846,1.22251 -1.44959,1.01582 -0.13731,-0.15911 0.68075,-1.19583 0.47522,-1.31972 -0.0883,-0.0877 -1.81064,1.01869 -2.0654,0.93279 -0.0473,-0.3153 3.53255,-2.65315 2.99247,-3.94952 z"
       id="path4284"
       sodipodi:nodetypes="cccccccc" />
    <path
       style="display:inline;opacity:0.994;fill:#c8beb7;stroke:#000000;stroke-width:0.264583px;stroke-linecap:butt;stroke-linejoin:miter;stroke-opacity:1"
       d="m 165.93608,222.69464 17.91141,0.41554 c 1.59246,7.26428 1.78067,13.13877 -1.39952,15.67952 -1.75193,0.1194 -2.68968,0.31599 -4.53839,-1.16337 -1.91271,-0.03 -4.32697,0.38689 -5.88399,-0.0768 -0.94881,0.95528 -2.60204,1.08489 -4.04858,1.27956 -2.50387,-2.75305 -4.4459,-5.47176 -2.04093,-16.13445 z"
       id="path4286"
       sodipodi:nodetypes="ccccccc" />
    <path
       style="display:inline;opacity:0.994;fill:#c8beb7;stroke:#000000;stroke-width:0.264583px;stroke-linecap:butt;stroke-linejoin:miter;stroke-opacity:1"
       d="m 181.75925,209.93215 c 2.20667,3.07644 3.45232,9.25548 1.85513,13.80566 -5.59008,5.69317 -18.48763,2.58217 -17.6783,-1.04317 -0.51919,-4.51775 -1.64004,-8.45149 2.58137,-13.51843 10.05678,-2.21347 9.50263,-0.0407 13.2418,0.75594 z"
       id="path4288"
       sodipodi:nodetypes="ccccc" />
    <path
       style="opacity:0.994;fill:#c8beb7;stroke:#000000;stroke-width:0.264583px;stroke-linecap:butt;stroke-linejoin:miter;stroke-opacity:1"
       d="m 168.74206,212.81462 c -1.75158,-2.16886 -3.5036,-4.33744 -1.57828,-8.90927 -0.84666,0.65807 -6.79837,-2.49994 -0.7569,-8.05859 1.23289,0.14974 2.42454,1.34831 3.56835,3.76379 2.53313,-0.92367 5.49078,-1.02324 9.40173,-0.0632 1.16133,-1.5305 2.12181,-3.95429 3.79664,-3.55408 3.33081,3.17976 2.59759,5.8912 -0.27192,8.35647 1.07599,4.44994 -0.61992,6.3457 -1.95736,8.57177"
       id="path4290"
       sodipodi:nodetypes="cccccccc" />
    <path
       id="path4292"
       style="opacity:0.994;fill:#000000;fill-opacity:1;stroke-width:0.057;stop-color:#000000"
       d="m 180.40736,205.57591 a 1.4384242,1.651348 0 0 1 -1.43843,1.65135 1.4384242,1.651348 0 0 1 -1.43842,-1.65135 1.4384242,1.651348 0 0 1 1.43842,-1.65135 1.4384242,1.651348 0 0 1 1.43843,1.65135 z" />
    <ellipse
       style="opacity:0.994;fill:#282828;fill-opacity:1;stroke-width:0.057;stop-color:#000000"
       id="ellipse4294"
       cx="170.90306"
       cy="205.61699"
       rx="1.20689"
       ry="1.5058854" />
    <path
       style="opacity:0.994;fill:none;stroke:#000000;stroke-width:0.264583px;stroke-linecap:butt;stroke-linejoin:miter;stroke-opacity:1"
       d="m 180.96288,197.32206 c -0.93666,1.96709 -0.6959,3.80036 0.0906,5.57161"
       id="path4296"
       sodipodi:nodetypes="cc" />
    <path
       style="opacity:0.994;fill:none;stroke:#000000;stroke-width:0.264583px;stroke-linecap:butt;stroke-linejoin:miter;stroke-opacity:1"
       d="m 168.66702,197.37431 c 0.53322,2.54943 -0.0547,4.14255 -0.74393,5.64933"
       id="path4298"
       sodipodi:nodetypes="cc" />
    <path
       style="opacity:0.994;fill:none;stroke:#000000;stroke-width:0.264583px;stroke-linecap:butt;stroke-linejoin:miter;stroke-opacity:1"
       d="m 173.06688,209.92776 c 0.52395,0.6247 0.64858,1.88612 1.6863,1.69159 0.87431,-0.0139 1.50084,-0.74109 2.11042,-1.51709"
       id="path4300"
       sodipodi:nodetypes="ccc" />
    <path
       style="opacity:0.994;fill:#e3dedb;stroke:#000000;stroke-width:0.264583px;stroke-linecap:butt;stroke-linejoin:miter;stroke-opacity:1"
       d="m 172.94009,224.7862 c -0.6254,0.15607 -1.01843,0.3024 -1.28931,0.95539 0.53346,0.93923 1.2062,1.10474 2.03576,1.36108 l -0.47616,-1.2028 1.05387,0.86935 c 0.1026,-0.51355 0.33381,-0.97686 0.0679,-1.63434 -0.45513,-0.55045 -0.92646,-0.30945 -1.39205,-0.34868 z"
       id="path4304"
       sodipodi:nodetypes="ccccccc" />
    <path
       style="opacity:0.994;fill:none;stroke:#000000;stroke-width:0.264583px;stroke-linecap:butt;stroke-linejoin:miter;stroke-opacity:1"
       d="m 177.35794,219.88462 c -0.3626,1.84879 0.43328,2.04145 0.55705,2.4053 0,0 3.87707,-0.34466 3.6539,0.49992"
       id="path4306"
       sodipodi:nodetypes="ccc" />
    <path
       style="opacity:0.994;fill:none;stroke:#000000;stroke-width:0.264583px;stroke-linecap:butt;stroke-linejoin:miter;stroke-opacity:1"
       d="m 172.69676,220.66043 c -0.0324,1.53754 -1.26578,2.39963 -0.97488,2.39133 -0.003,0.35877 0.98194,1.025 1.21821,1.73444"
       id="path4308"
       sodipodi:nodetypes="ccc" />
    <rect
       style="opacity:0.995;fill:#c0883e;fill-opacity:1;fill-rule:nonzero;stroke:#2f2f2f;stroke-width:0.161;stroke-miterlimit:4;stroke-dasharray:none;stroke-opacity:1;stop-color:#000000"
       id="rect4312"
       width="2.2295723"
       height="47.754887"
       x="183.1736"
       y="195.99327" />
    <path
       style="opacity:0.994;fill:#e3dedb;stroke:#000000;stroke-width:0.264583px;stroke-linecap:butt;stroke-linejoin:miter;stroke-opacity:1"
       d="m 181.56889,222.78984 c 0.56397,0.59548 0.56022,0.50165 1.42943,0.33437 0.25953,-0.48961 -0.008,-0.59115 -0.008,-0.59115 l -0.0754,-0.283 c 0.26287,-0.45148 2.26985,1.50105 1.69485,-0.94866 -0.3199,-0.56562 -2.8681,-0.58752 -2.95852,-0.25558 -0.66565,1.00692 -0.47116,1.13788 -0.0819,1.74399 z"
       id="path4302"
       sodipodi:nodetypes="cccccccc" />
    <path
       style="opacity:0.994;fill:#b8bdc9;fill-opacity:1;stroke:#000000;stroke-width:0.1;stroke-linecap:butt;stroke-linejoin:miter;stroke-miterlimit:4;stroke-dasharray:none;stroke-opacity:1"
       d="m 182.33888,197.26742 4.4216,0.0576 -2.33923,-10.24969 z"
       id="path4314"
       sodipodi:nodetypes="cccc" />
    <circle
       style="opacity:0.995;fill:#825b1c;fill-opacity:1;fill-rule:nonzero;stroke:#545454;stroke-width:1;stroke-miterlimit:4;stroke-dasharray:none;stroke-opacity:1;stop-color:#000000"
       id="path4316"
       cx="170.20044"
       cy="224.063"
       r="6.5713482" />
    <path
       style="opacity:0.994;fill:#92969f;fill-opacity:1;stroke:#000000;stroke-width:0.265;stroke-linecap:butt;stroke-linejoin:miter;stroke-miterlimit:4;stroke-dasharray:none;stroke-opacity:1"
       d="m 169.79412,202.28589 10.3287,-0.024 c -0.78799,-3.11321 -0.56881,-7.27605 -5.42914,-6.83136 -3.4598,-0.15503 -4.1019,1.58308 -4.89956,6.85536 z"
       id="path4318"
       sodipodi:nodetypes="cccc" />
  </g>
</svg>
