<?xml version="1.0" encoding="UTF-8" standalone="no"?>
<svg
   xmlns:dc="http://purl.org/dc/elements/1.1/"
   xmlns:cc="http://creativecommons.org/ns#"
   xmlns:rdf="http://www.w3.org/1999/02/22-rdf-syntax-ns#"
   xmlns:svg="http://www.w3.org/2000/svg"
   xmlns="http://www.w3.org/2000/svg"
   xmlns:sodipodi="http://sodipodi.sourceforge.net/DTD/sodipodi-0.dtd"
   xmlns:inkscape="http://www.inkscape.org/namespaces/inkscape"
   width="13.736609mm"
   height="11.067754mm"
   viewBox="0 0 13.736609 11.067754"
   version="1.1"
   id="svg19353"
   inkscape:version="1.0.2 (e86c870879, 2021-01-15, custom)"
   sodipodi:docname="research-institute.svg">
  <defs
     id="defs19347" />
  <sodipodi:namedview
     id="base"
     pagecolor="#ffffff"
     bordercolor="#666666"
     borderopacity="1.0"
     inkscape:pageopacity="0.0"
     inkscape:pageshadow="2"
     inkscape:zoom="0.35"
     inkscape:cx="165.95894"
     inkscape:cy="46.629728"
     inkscape:document-units="mm"
     inkscape:current-layer="layer1"
     inkscape:document-rotation="0"
     showgrid="false"
     inkscape:window-width="902"
     inkscape:window-height="1021"
     inkscape:window-x="1004"
     inkscape:window-y="45"
     inkscape:window-maximized="0" />
  <metadata
     id="metadata19350">
    <rdf:RDF>
      <cc:Work
         rdf:about="">
        <dc:format>image/svg+xml</dc:format>
        <dc:type
           rdf:resource="http://purl.org/dc/dcmitype/StillImage" />
        <dc:title></dc:title>
      </cc:Work>
    </rdf:RDF>
  </metadata>
  <g
     inkscape:label="Layer 1"
     inkscape:groupmode="layer"
     id="layer1"
     transform="translate(-61.923363,-135.82922)">
    <g
       id="g18959"
       inkscape:label="research_institute"
       transform="translate(-38.524271,-75.19844)">
      <path
         style="display:inline;fill:#a07f63;fill-opacity:1;stroke:#000000;stroke-width:0.132292;stroke-linecap:butt;stroke-linejoin:bevel;stroke-miterlimit:4;stroke-dasharray:none;stroke-opacity:1"
         d="m 107.29632,221.95652 -0.052,-2.63825 -6.73054,-3.90007 0.002,2.65255 z"
         id="path18875"
         sodipodi:nodetypes="ccccc" />
      <path
         style="display:inline;fill:#a07f63;fill-opacity:1;stroke:#000000;stroke-width:0.132292;stroke-linecap:butt;stroke-linejoin:bevel;stroke-miterlimit:4;stroke-dasharray:none;stroke-opacity:1"
         d="m 107.28965,219.34473 6.82825,-3.99521 -1.5e-4,2.69359 -6.82825,3.99521 z"
         id="path18877"
         sodipodi:nodetypes="ccccc" />
      <path
         style="display:inline;fill:#bab38d;fill-opacity:1;stroke:#000000;stroke-width:0.0749229;stroke-linecap:butt;stroke-linejoin:miter;stroke-miterlimit:4;stroke-dasharray:none;stroke-opacity:1"
         d="m 102.68481,219.21192 -7e-5,-0.95007 c -0.54842,-1.22468 -0.97355,-1.41183 -1.2977,-0.74923 l 7e-5,0.95008 z"
         id="path18919"
         sodipodi:nodetypes="ccccc" />
      <path
         style="display:inline;fill:#bab38d;fill-opacity:1;stroke:#000000;stroke-width:0.0749229;stroke-linecap:butt;stroke-linejoin:miter;stroke-miterlimit:4;stroke-dasharray:none;stroke-opacity:1"
         d="m 105.4629,220.87488 -7e-5,-0.95007 c -0.54842,-1.22468 -0.97355,-1.41183 -1.2977,-0.74923 l 7e-5,0.95008 z"
         id="path18923"
         sodipodi:nodetypes="ccccc" />
      <path
         style="font-variation-settings:normal;opacity:1;vector-effect:none;fill:#c0a690;fill-opacity:1;stroke:#000000;stroke-width:0.132292;stroke-linecap:butt;stroke-linejoin:bevel;stroke-miterlimit:4;stroke-dasharray:none;stroke-dashoffset:0;stroke-opacity:1;stop-color:#000000;stop-opacity:1"
         d="m 114.15104,215.36261 -6.87808,3.97752 -6.71921,-3.88412 6.77274,-4.05413 z"
         id="path18968"
         sodipodi:nodetypes="ccccc" />
      <g
         id="g19051"
         transform="matrix(0.13632827,0,0,0.13632827,93.281819,180.73348)">
        <path
           style="fill:#846b81;fill-opacity:1;stroke:#000000;stroke-width:0.0661458;stroke-linecap:round;stroke-linejoin:bevel;stroke-miterlimit:4;stroke-dasharray:none;stroke-opacity:1"
           d="m 131.06062,251.29963 -0.0861,-9.81135 c 2.37491,-0.2735 0,0 2.2807,0.006 l 0.0861,9.81135 c -0.74783,0.86498 -1.50775,0.88487 -2.2807,-0.006 z"
           id="path19047"
           sodipodi:nodetypes="ccccc" />
        <path
           style="display:inline;fill:#323027;fill-opacity:1;stroke:#000000;stroke-width:0.0661458;stroke-linecap:butt;stroke-linejoin:miter;stroke-miterlimit:4;stroke-dasharray:none;stroke-opacity:1"
           d="m 130.97448,241.48828 c 0.77759,0.41252 1.53658,0.57436 2.2807,0.006 -0.8145,-0.57058 -1.5694,-0.57439 -2.2807,-0.006 z"
           id="path19049"
           sodipodi:nodetypes="ccc"
           inkscape:label="path2017" />
      </g>
      <path
         style="fill:#b07396;fill-opacity:1;stroke:#000000;stroke-width:0.264583px;stroke-linecap:butt;stroke-linejoin:miter;stroke-opacity:1"
         d="m 111.66717,215.39786 c -3.20215,-6.31492 -6.01416,-4.93355 -8.61502,-0.0397 2.76905,2.72937 5.63083,3.00448 8.61502,0.0397 z"
         id="path18987"
         sodipodi:nodetypes="ccc" />
      <g
         id="g19036"
         transform="matrix(0.13632827,0,0,0.13632827,84.542881,181.3586)">
        <path
           style="fill:#bba2b8;fill-opacity:1;stroke:#000000;stroke-width:0.0661458;stroke-linecap:round;stroke-linejoin:bevel;stroke-miterlimit:4;stroke-dasharray:none;stroke-opacity:1"
           d="m 131.06062,251.29963 -0.0861,-9.81135 c 2.37491,-0.2735 0,0 2.2807,0.006 l 0.0861,9.81135 c -0.74783,0.86498 -1.50775,0.88487 -2.2807,-0.006 z"
           id="path2015-5"
           sodipodi:nodetypes="ccccc" />
        <path
           style="display:inline;fill:#323027;fill-opacity:1;stroke:#000000;stroke-width:0.0661458;stroke-linecap:butt;stroke-linejoin:miter;stroke-miterlimit:4;stroke-dasharray:none;stroke-opacity:1"
           d="m 130.97448,241.48828 c 0.77759,0.41252 1.53658,0.57436 2.2807,0.006 -0.8145,-0.57058 -1.5694,-0.57439 -2.2807,-0.006 z"
           id="path2017-0"
           sodipodi:nodetypes="ccc"
           inkscape:label="path2017" />
      </g>
      <g
         id="g19045"
         transform="matrix(0.13632827,0,0,0.13632827,89.616061,184.07639)">
        <path
           style="fill:#a1839e;fill-opacity:1;stroke:#000000;stroke-width:0.0661458;stroke-linecap:round;stroke-linejoin:bevel;stroke-miterlimit:4;stroke-dasharray:none;stroke-opacity:1"
           d="m 131.06062,251.29963 -2.3e-4,-9.81766 c 2.37491,-0.2735 0,0 2.2807,0.006 l 2.3e-4,9.81766 c -0.74783,0.86498 -1.50775,0.88487 -2.2807,-0.006 z"
           id="path19041"
           sodipodi:nodetypes="ccccc" />
        <path
           style="display:inline;fill:#323027;fill-opacity:1;stroke:#000000;stroke-width:0.0661458;stroke-linecap:butt;stroke-linejoin:miter;stroke-miterlimit:4;stroke-dasharray:none;stroke-opacity:1"
           d="m 131.06035,241.48197 c 0.77759,0.41252 1.53658,0.57436 2.2807,0.006 -0.8145,-0.57058 -1.5694,-0.57439 -2.2807,-0.006 z"
           id="path19043"
           sodipodi:nodetypes="ccc"
           inkscape:label="path2017" />
      </g>
      <g
         id="g19057"
         transform="matrix(0.13632827,0,0,0.13632827,89.412042,184.20061)">
        <path
           style="fill:#bb8bb7;fill-opacity:1;stroke:#000000;stroke-width:0.0661458;stroke-linecap:round;stroke-linejoin:bevel;stroke-miterlimit:4;stroke-dasharray:none;stroke-opacity:1"
           d="m 131.06062,251.29963 -0.0328,-5.88222 c 2.37491,-0.2735 0,0 2.2807,0.006 l 0.0328,5.88222 c -0.74783,0.86498 -1.50775,0.88487 -2.2807,-0.006 z"
           id="path19053"
           sodipodi:nodetypes="ccccc" />
        <path
           style="display:inline;fill:#323027;fill-opacity:1;stroke:#000000;stroke-width:0.0661458;stroke-linecap:butt;stroke-linejoin:miter;stroke-miterlimit:4;stroke-dasharray:none;stroke-opacity:1"
           d="m 131.02782,245.41741 c 0.77759,0.41252 1.53658,0.57436 2.2807,0.006 -0.8145,-0.57058 -1.5694,-0.57439 -2.2807,-0.006 z"
           id="path19055"
           sodipodi:nodetypes="ccc"
           inkscape:label="path2017" />
      </g>
      <path
         style="display:inline;fill:#d0c9a0;fill-opacity:1;stroke:#000000;stroke-width:0.0749229;stroke-linecap:butt;stroke-linejoin:miter;stroke-miterlimit:4;stroke-dasharray:none;stroke-opacity:1"
         d="m 110.84856,219.9127 -7e-5,-0.95007 c -0.60299,-0.85263 -0.94663,0.0984 -1.2696,0.7294 l 7e-5,0.95008 z"
         id="path19059"
         sodipodi:nodetypes="ccccc" />
      <path
         style="display:inline;fill:#d0c9a0;fill-opacity:1;stroke:#000000;stroke-width:0.0749229;stroke-linecap:butt;stroke-linejoin:miter;stroke-miterlimit:4;stroke-dasharray:none;stroke-opacity:1"
         d="m 113.40739,218.41243 -7e-5,-0.95007 c -0.60299,-0.85263 -0.94663,0.0984 -1.2696,0.7294 l 7e-5,0.95008 z"
         id="path19061"
         sodipodi:nodetypes="ccccc" />
    </g>
  </g>
</svg>
