<?xml version="1.0" encoding="UTF-8" standalone="no"?>
<svg
   xmlns:dc="http://purl.org/dc/elements/1.1/"
   xmlns:cc="http://creativecommons.org/ns#"
   xmlns:rdf="http://www.w3.org/1999/02/22-rdf-syntax-ns#"
   xmlns:svg="http://www.w3.org/2000/svg"
   xmlns="http://www.w3.org/2000/svg"
   xmlns:sodipodi="http://sodipodi.sourceforge.net/DTD/sodipodi-0.dtd"
   xmlns:inkscape="http://www.inkscape.org/namespaces/inkscape"
   width="29.431946mm"
   height="48.811195mm"
   viewBox="0 0 29.431946 48.811195"
   version="1.1"
   id="svg5772"
   inkscape:version="1.0.2 (e86c870879, 2021-01-15, custom)"
   sodipodi:docname="salesmouse.svg">
  <defs
     id="defs5766" />
  <sodipodi:namedview
     id="base"
     pagecolor="#ffffff"
     bordercolor="#666666"
     borderopacity="1.0"
     inkscape:pageopacity="0.0"
     inkscape:pageshadow="2"
     inkscape:zoom="0.35"
     inkscape:cx="209.90514"
     inkscape:cy="-107.75838"
     inkscape:document-units="mm"
     inkscape:current-layer="layer1"
     inkscape:document-rotation="0"
     showgrid="false"
     inkscape:window-width="902"
     inkscape:window-height="1021"
     inkscape:window-x="1004"
     inkscape:window-y="45"
     inkscape:window-maximized="0" />
  <metadata
     id="metadata5769">
    <rdf:RDF>
      <cc:Work
         rdf:about="">
        <dc:format>image/svg+xml</dc:format>
        <dc:type
           rdf:resource="http://purl.org/dc/dcmitype/StillImage" />
        <dc:title></dc:title>
      </cc:Work>
    </rdf:RDF>
  </metadata>
  <g
     inkscape:label="Layer 1"
     inkscape:groupmode="layer"
     id="layer1"
     transform="translate(-50.295931,-176.67774)">
    <path
       style="display:inline;opacity:0.994;fill:#554400;stroke:#000000;stroke-width:0.264583px;stroke-linecap:butt;stroke-linejoin:miter;stroke-opacity:1"
       d="m 60.184425,219.97559 c -0.29298,1.4328 -0.158945,3.37726 2.550502,4.31159 l 12.197267,-0.0189 c 0,0 3.933903,1.46559 4.411023,0.9953 1.18568,-1.13664 -2.190368,-2.51839 -2.190368,-2.51839 L 67.13078,222.62993 c -2.024402,-0.16153 -3.47233,-0.89787 -3.885607,-2.53057 z"
       id="path2329"
       sodipodi:nodetypes="cccccccc" />
    <path
       style="opacity:0.994;fill:#483e37;stroke:#000000;stroke-width:0.264583px;stroke-linecap:butt;stroke-linejoin:miter;stroke-opacity:1"
       d="m 67.627498,221.45131 c 0,0 1.784195,-0.15789 1.816256,-0.0683 0.532139,1.89704 1.796923,1.85627 2.146513,2.46017 -0.25839,0.53797 -1.655208,-0.46232 -1.678798,-0.41459 -0.05275,0.0424 0.721298,1.30063 0.689018,1.32843 -0.10425,0.0544 -1.40358,-1.17435 -1.476712,-1.1156 -0.0868,0.0327 0.747,1.46633 0.440637,1.55204 -0.391376,0.0774 -2.001686,-1.86491 -1.936914,-3.74215 z"
       id="path2331"
       sodipodi:nodetypes="cccccccc" />
    <path
       style="opacity:0.994;fill:#483e37;stroke:#000000;stroke-width:0.264583px;stroke-linecap:butt;stroke-linejoin:miter;stroke-opacity:1"
       d="m 54.515529,220.40819 c 1.299114,-0.55435 1.533464,0.91432 1.533464,0.91432 0.268697,1.91224 -0.860171,2.86458 -1.739171,3.97442 -0.40294,-0.29662 0.534811,-1.48757 0.253006,-1.56811 -0.174774,-0.0963 -1.318454,1.22251 -1.449591,1.01582 -0.137302,-0.15911 0.680757,-1.19583 0.475221,-1.31972 -0.08828,-0.0877 -1.810634,1.01869 -2.065393,0.93279 -0.04731,-0.3153 3.532543,-2.65315 2.992464,-3.94952 z"
       id="path2333"
       sodipodi:nodetypes="cccccccc" />
    <path
       style="display:inline;opacity:0.994;fill:#c8bea8;fill-opacity:1;stroke:#000000;stroke-width:0.264583px;stroke-linecap:butt;stroke-linejoin:miter;stroke-opacity:1"
       d="m 52.931858,205.28795 17.911409,0.41554 c 1.59246,7.26428 1.78067,13.13877 -1.399513,15.67952 -1.751937,0.1194 -2.68968,0.31599 -4.538393,-1.16337 -1.912713,-0.03 -4.326968,0.38689 -5.883992,-0.0768 -0.948812,0.95528 -2.602043,1.08489 -4.048574,1.27956 -2.503872,-2.75305 -4.445908,-5.47176 -2.040937,-16.13445 z"
       id="path2335"
       sodipodi:nodetypes="ccccccc" />
    <path
       style="display:inline;opacity:0.994;fill:#c8bea8;fill-opacity:1;stroke:#000000;stroke-width:0.264583px;stroke-linecap:butt;stroke-linejoin:miter;stroke-opacity:1"
       d="m 68.755026,192.52546 c 2.206671,3.07644 3.452321,9.25548 1.855131,13.80566 -5.59008,5.69317 -18.48763,2.58217 -17.678299,-1.04317 -0.51919,-4.51775 -1.640033,-8.45149 2.581374,-13.51843 10.056782,-2.21347 9.502625,-0.0407 13.241794,0.75594 z"
       id="path2337"
       sodipodi:nodetypes="ccccc" />
    <path
       style="opacity:0.994;fill:#c8bea8;fill-opacity:1;stroke:#000000;stroke-width:0.264583px;stroke-linecap:butt;stroke-linejoin:miter;stroke-opacity:1"
       d="m 55.73784,195.40793 c -1.751584,-2.16886 -3.503601,-4.33744 -1.578279,-8.90928 -0.846658,0.65808 -6.798369,-2.49993 -0.756899,-8.05858 1.232888,0.14974 2.424541,1.3483 3.568351,3.76378 2.533126,-0.92366 5.490782,-1.02324 9.401732,-0.0632 1.161324,-1.53049 2.121805,-3.95428 3.796634,-3.55407 3.330808,3.17975 2.597588,5.89119 -0.27192,8.35647 1.075988,4.44993 -0.619914,6.3457 -1.957361,8.57177"
       id="path2339"
       sodipodi:nodetypes="cccccccc" />
    <path
       id="path2341"
       style="opacity:0.994;fill:#000000;fill-opacity:1;stroke-width:0.057;stop-color:#000000"
       d="m 66.787743,188.52079 a 1.4384242,1.651348 0 0 1 -1.438424,1.65135 1.4384242,1.651348 0 0 1 -1.438424,-1.65135 1.4384242,1.651348 0 0 1 1.438424,-1.65135 1.4384242,1.651348 0 0 1 1.438424,1.65135 z" />
    <ellipse
       style="opacity:0.994;fill:#282828;fill-opacity:1;stroke-width:0.057;stop-color:#000000"
       id="ellipse2343"
       cx="58.046276"
       cy="188.46811"
       rx="1.20689"
       ry="1.5058854" />
    <path
       style="opacity:0.994;fill:none;stroke:#000000;stroke-width:0.264583px;stroke-linecap:butt;stroke-linejoin:miter;stroke-opacity:1"
       d="m 67.958658,179.91536 c -0.936653,1.96709 -0.6959,3.80037 0.09056,5.57162"
       id="path2345"
       sodipodi:nodetypes="cc" />
    <path
       style="opacity:0.994;fill:none;stroke:#000000;stroke-width:0.264583px;stroke-linecap:butt;stroke-linejoin:miter;stroke-opacity:1"
       d="m 55.662796,179.96762 c 0.533221,2.54943 -0.05474,4.14254 -0.743923,5.64932"
       id="path2347"
       sodipodi:nodetypes="cc" />
    <path
       style="opacity:0.994;fill:none;stroke:#000000;stroke-width:0.264583px;stroke-linecap:butt;stroke-linejoin:miter;stroke-opacity:1"
       d="m 58.976265,193.37073 c 0.523947,0.6247 1.444453,0.68042 2.482174,0.48589 0.874313,-0.0139 2.156325,0.0678 2.765905,-0.70824"
       id="path2349"
       sodipodi:nodetypes="ccc" />
    <path
       style="opacity:0.994;fill:#e3dedb;stroke:#000000;stroke-width:0.264583px;stroke-linecap:butt;stroke-linejoin:miter;stroke-opacity:1"
       d="m 63.686265,207.21828 c -0.816119,-0.0813 -1.384867,0.55344 -1.932726,1.24868 0.124098,0.54007 0.239991,0.56352 0.355687,0.57451 l 0.918951,-0.80245 c -0.06176,0.54097 -1.010393,0.69201 -0.185484,1.53452 0.61201,0.21842 2.16565,-0.92402 2.28672,-1.32345 -0.155474,-1.197 -0.7522,-1.02816 -1.443148,-1.23181 z"
       id="path2351"
       sodipodi:nodetypes="ccccccc" />
    <path
       style="opacity:0.994;fill:#e3dedb;stroke:#000000;stroke-width:0.264583px;stroke-linecap:butt;stroke-linejoin:miter;stroke-opacity:1"
       d="m 59.93587,207.37951 c -0.625396,0.15607 -1.018433,0.3024 -1.289305,0.95539 0.533454,0.93923 1.206196,1.10474 2.035753,1.36108 l -0.47616,-1.2028 1.053872,0.86935 c 0.102597,-0.51355 0.333814,-0.97686 0.06789,-1.63434 -0.455132,-0.55045 -0.92646,-0.30945 -1.392053,-0.34868 z"
       id="path2353"
       sodipodi:nodetypes="ccccccc" />
    <path
       style="opacity:0.994;fill:none;stroke:#000000;stroke-width:0.264583px;stroke-linecap:butt;stroke-linejoin:miter;stroke-opacity:1"
       d="m 64.264417,203.37475 c -0.362592,1.84879 0.343757,1.8086 0.467524,2.17245 0.274897,0.33039 -0.822505,0.8265 -1.045675,1.67108"
       id="path2355"
       sodipodi:nodetypes="ccc" />
    <path
       style="opacity:0.994;fill:none;stroke:#000000;stroke-width:0.264583px;stroke-linecap:butt;stroke-linejoin:miter;stroke-opacity:1"
       d="m 59.692541,203.25374 c -0.03239,1.53754 -1.265781,2.39963 -0.974878,2.39133 -0.0027,0.35877 0.981937,1.025 1.218207,1.73444"
       id="path2357"
       sodipodi:nodetypes="ccc" />
    <path
       id="path2364"
       style="opacity:0.994;fill:#483737;stroke-width:0.788723;stop-color:#000000"
       d="m 63.531659,207.96799 c -1.525207,1.87469 -2.928794,3.25843 -3.134999,3.09067 -0.206195,-0.16777 0.863064,-1.82351 2.388262,-3.69819 1.525209,-1.8747 2.662624,-3.40853 3.135,-3.09067 0.631614,0.42501 -0.863067,1.82351 -2.388263,3.69819 z"
       sodipodi:nodetypes="sssss" />
    <path
       id="rect2361"
       style="opacity:0.994;fill:#ffeeaa;stroke:#b8ab7a;stroke-width:0.197644;stroke-miterlimit:4;stroke-dasharray:none;stroke-opacity:0.996078;stop-color:#000000"
       d="m 52.730668,199.97432 10.280575,2.8059 -2.317346,10.17178 -10.280574,-2.80589 z" />
    <rect
       style="opacity:0.994;fill:#fff2e2;fill-opacity:1;stroke:#ccc1b3;stroke-width:0.197644;stroke-miterlimit:4;stroke-dasharray:none;stroke-opacity:0.996078;stop-color:#000000"
       id="rect2367"
       width="6.4197588"
       height="2.7955968"
       x="80.602852"
       y="190.49965"
       transform="rotate(5.347725)" />
    <text
       xml:space="preserve"
       style="font-size:2.11667px;line-height:1.25;font-family:Grandstander;-inkscape-font-specification:Grandstander;opacity:0.994;stroke-width:0.0845573"
       x="86.17009"
       y="190.1646"
       id="text2371"
       transform="rotate(6.8623216)"><tspan
         sodipodi:role="line"
         id="tspan2369"
         x="86.17009"
         y="190.1646"
         style="font-size:2.11667px;stroke-width:0.0845573">Jerry</tspan></text>
    <path
       style="opacity:0.994;fill:none;stroke:#626262;stroke-width:0.264583px;stroke-linecap:butt;stroke-linejoin:miter;stroke-opacity:1"
       d="m 67.975059,197.34126 0.06986,0.84099 0.741701,-0.14398"
       id="path2373"
       sodipodi:nodetypes="ccc" />
    <path
       style="opacity:0.994;fill:#d27876;fill-opacity:1;stroke:#000000;stroke-width:0.264583px;stroke-linecap:butt;stroke-linejoin:miter;stroke-opacity:1"
       d="m 57.61895,182.97875 c -0.663138,1.84402 9.497609,1.83418 8.839562,0.36704 -0.616142,-3.47644 -3.770634,-5.60671 -4.796022,-6.53213 -0.699154,0.0493 -3.705998,-0.53811 -4.04354,6.16509 z"
       id="path2375"
       sodipodi:nodetypes="cccc" />
  </g>
</svg>
