<?xml version="1.0" encoding="UTF-8" standalone="no"?>
<svg
   xmlns:dc="http://purl.org/dc/elements/1.1/"
   xmlns:cc="http://creativecommons.org/ns#"
   xmlns:rdf="http://www.w3.org/1999/02/22-rdf-syntax-ns#"
   xmlns:svg="http://www.w3.org/2000/svg"
   xmlns="http://www.w3.org/2000/svg"
   xmlns:sodipodi="http://sodipodi.sourceforge.net/DTD/sodipodi-0.dtd"
   xmlns:inkscape="http://www.inkscape.org/namespaces/inkscape"
   width="39.153954mm"
   height="47.620617mm"
   viewBox="0 0 39.153954 47.620617"
   version="1.1"
   id="svg1826"
   inkscape:version="1.0.2 (e86c870879, 2021-01-15, custom)"
   sodipodi:docname="security.svg">
  <defs
     id="defs1820">
    <filter
       inkscape:collect="always"
       style="color-interpolation-filters:sRGB"
       id="filter1747"
       x="-1.757143e-05"
       width="1.000035"
       y="-2.1161291e-05"
       height="1.0000423">
      <feGaussianBlur
         inkscape:collect="always"
         stdDeviation="3.1242002e-05"
         id="feGaussianBlur1749" />
    </filter>
  </defs>
  <sodipodi:namedview
     id="base"
     pagecolor="#ffffff"
     bordercolor="#666666"
     borderopacity="1.0"
     inkscape:pageopacity="0.0"
     inkscape:pageshadow="2"
     inkscape:zoom="0.35"
     inkscape:cx="182.56315"
     inkscape:cy="661.4203"
     inkscape:document-units="mm"
     inkscape:current-layer="layer1"
     inkscape:document-rotation="0"
     showgrid="false"
     inkscape:window-width="902"
     inkscape:window-height="1021"
     inkscape:window-x="1004"
     inkscape:window-y="45"
     inkscape:window-maximized="0" />
  <metadata
     id="metadata1823">
    <rdf:RDF>
      <cc:Work
         rdf:about="">
        <dc:format>image/svg+xml</dc:format>
        <dc:type
           rdf:resource="http://purl.org/dc/dcmitype/StillImage" />
        <dc:title></dc:title>
      </cc:Work>
    </rdf:RDF>
  </metadata>
  <g
     inkscape:label="Layer 1"
     inkscape:groupmode="layer"
     id="layer1"
     transform="translate(-57.530166,26.834121)">
    <path
       style="display:inline;opacity:0.994;fill:#554400;stroke:#000000;stroke-width:0.264583px;stroke-linecap:butt;stroke-linejoin:miter;stroke-opacity:1"
       d="m 67.120891,15.28291 c -0.29298,1.4328 -0.15894,3.37726 2.55051,4.31159 l 16.26875,0.0113 c 0,0 9.98623,0.44839 10.46335,-0.0219 1.18568,-1.13664 -5.09402,-1.70075 -5.09402,-1.70075 l -17.24223,0.0541 c -2.0244,-0.16153 -3.47233,-0.89787 -3.88561,-2.53057 z"
       id="path4280"
       sodipodi:nodetypes="cccccccc" />
    <path
       style="opacity:0.994;fill:#483e37;stroke:#000000;stroke-width:0.264583px;stroke-linecap:butt;stroke-linejoin:miter;stroke-opacity:1"
       d="m 74.563971,16.75863 c 0,0 1.78419,-0.15789 1.81625,-0.0683 0.53214,1.89704 1.79693,1.85627 2.14652,2.46017 -0.25839,0.53797 -1.65521,-0.46232 -1.6788,-0.41459 -0.0528,0.0424 0.7213,1.30063 0.68902,1.32843 -0.10425,0.0544 -1.40358,-1.17435 -1.47672,-1.1156 -0.0868,0.0327 0.747,1.46633 0.44064,1.55204 -0.39137,0.0774 -2.00168,-1.86491 -1.93691,-3.74215 z"
       id="path4282"
       sodipodi:nodetypes="cccccccc" />
    <path
       style="opacity:0.994;fill:#483e37;stroke:#000000;stroke-width:0.264583px;stroke-linecap:butt;stroke-linejoin:miter;stroke-opacity:1"
       d="m 61.452001,15.71551 c 1.29911,-0.55435 1.53346,0.91432 1.53346,0.91432 0.2687,1.91224 -0.86017,2.86458 -1.73917,3.97442 -0.40294,-0.29662 0.53481,-1.48757 0.25301,-1.56811 -0.17478,-0.0963 -1.31846,1.22251 -1.44959,1.01582 -0.13731,-0.15911 0.68075,-1.19583 0.47522,-1.31972 -0.0883,-0.0877 -1.81064,1.01869 -2.0654,0.93279 -0.0473,-0.3153 3.53255,-2.65315 2.99247,-3.94952 z"
       id="path4284"
       sodipodi:nodetypes="cccccccc" />
    <path
       style="display:inline;opacity:0.994;fill:#c8beb7;stroke:#000000;stroke-width:0.264583px;stroke-linecap:butt;stroke-linejoin:miter;stroke-opacity:1"
       d="m 59.868331,0.59527 17.91141,0.41554 c 1.59246,7.26428 1.78067,13.13877 -1.39952,15.67952 -1.75193,0.1194 -2.68968,0.31599 -4.53839,-1.16337 -1.91271,-0.03 -4.32697,0.38689 -5.88399,-0.0768 -0.94881,0.95528 -2.60204,1.08489 -4.04858,1.27956 -2.50387,-2.75305 -4.4459,-5.47176 -2.04093,-16.13445 z"
       id="path4286"
       sodipodi:nodetypes="ccccccc" />
    <path
       style="display:inline;opacity:0.994;fill:#c8beb7;stroke:#000000;stroke-width:0.264583px;stroke-linecap:butt;stroke-linejoin:miter;stroke-opacity:1"
       d="m 75.691501,-12.16722 c 2.20667,3.07644 3.45232,9.25548 1.85513,13.80566 -5.59008,5.69317 -18.48763,2.58217 -17.6783,-1.04317 -0.51919,-4.51775 -1.64004,-8.45149 2.58137,-13.51843 10.05678,-2.21347 9.50263,-0.0407 13.2418,0.75594 z"
       id="path4288"
       sodipodi:nodetypes="ccccc" />
    <path
       style="opacity:0.994;fill:#c8beb7;stroke:#000000;stroke-width:0.264583px;stroke-linecap:butt;stroke-linejoin:miter;stroke-opacity:1"
       d="m 62.674311,-9.28475 c -1.75158,-2.16886 -3.5036,-4.33744 -1.57828,-8.90927 -0.84666,0.65807 -6.79837,-2.49994 -0.7569,-8.05859 1.23289,0.14974 2.42454,1.34831 3.56835,3.76379 2.53313,-0.92367 5.49078,-1.02324 9.40173,-0.0632 1.16133,-1.5305 2.12181,-3.95429 3.79664,-3.55408 3.33081,3.17976 2.59759,5.8912 -0.27192,8.35647 1.07599,4.44994 -0.61992,6.3457 -1.95736,8.57177"
       id="path4290"
       sodipodi:nodetypes="cccccccc" />
    <path
       id="path4292"
       style="opacity:0.994;fill:#000000;fill-opacity:1;stroke-width:0.057;stop-color:#000000"
       d="m 74.339611,-16.52346 a 1.4384242,1.651348 0 0 1 -1.43843,1.65135 1.4384242,1.651348 0 0 1 -1.43842,-1.65135 1.4384242,1.651348 0 0 1 1.43842,-1.65135 1.4384242,1.651348 0 0 1 1.43843,1.65135 z" />
    <path
       style="opacity:0.994;fill:#484848;fill-opacity:1;stroke:#000000;stroke-width:0.264583px;stroke-linecap:butt;stroke-linejoin:miter;stroke-opacity:1"
       d="m 60.610231,-10.2406 c 2.27379,0.87859 4.94842,1.22846 6.43543,3.14483 1.38776,0.52916 2.61114,0.42548 3.73461,-0.0628 1.12196,-1.62285 3.67824,-2.34706 5.98582,-3.22709 0.79339,2.9554 2.29095,5.98477 0.78054,12.02414 -2.36832,1.74566 -5.09545,2.98188 -8.57768,3.14593 -3.66068,-0.61222 -8.37288,-0.46173 -9.10062,-4.1891 -0.42618,-3.57259 -0.75553,-7.73845 0.7419,-10.83587 z"
       id="path1753"
       sodipodi:nodetypes="cccccccc" />
    <ellipse
       style="opacity:0.994;fill:#282828;fill-opacity:1;stroke-width:0.057;stop-color:#000000"
       id="ellipse4294"
       cx="64.835304"
       cy="-16.482389"
       rx="1.20689"
       ry="1.5058854" />
    <path
       style="opacity:0.994;fill:none;stroke:#000000;stroke-width:0.264583px;stroke-linecap:butt;stroke-linejoin:miter;stroke-opacity:1"
       d="m 74.895131,-24.77731 c -0.93666,1.96709 -0.6959,3.80036 0.0906,5.57161"
       id="path4296"
       sodipodi:nodetypes="cc" />
    <path
       style="opacity:0.994;fill:none;stroke:#000000;stroke-width:0.264583px;stroke-linecap:butt;stroke-linejoin:miter;stroke-opacity:1"
       d="m 62.599271,-24.72506 c 0.53322,2.54943 -0.0547,4.14255 -0.74393,5.64933"
       id="path4298"
       sodipodi:nodetypes="cc" />
    <path
       style="opacity:0.994;fill:none;stroke:#000000;stroke-width:0.264583px;stroke-linecap:butt;stroke-linejoin:miter;stroke-opacity:1"
       d="m 66.390091,-11.55709 c 0.43612,0.36457 1.36134,0.60292 2.48247,0.74022 0.94728,0.0171 1.94924,-0.39762 2.92678,-0.5538"
       id="path4300"
       sodipodi:nodetypes="ccc" />
    <path
       style="opacity:0.994;fill:#e3dedb;stroke:#000000;stroke-width:0.264583px;stroke-linecap:butt;stroke-linejoin:miter;stroke-opacity:1"
       d="m 66.872341,2.68683 c -0.6254,0.15607 -1.01843,0.3024 -1.28931,0.95539 0.53346,0.93923 1.2062,1.10474 2.03576,1.36108 l -0.47616,-1.2028 1.05387,0.86935 c 0.1026,-0.51355 0.33381,-0.97686 0.0679,-1.63434 -0.45513,-0.55045 -0.92646,-0.30945 -1.39205,-0.34868 z"
       id="path4304"
       sodipodi:nodetypes="ccccccc" />
    <path
       style="opacity:0.994;fill:none;stroke:#000000;stroke-width:0.264583px;stroke-linecap:butt;stroke-linejoin:miter;stroke-opacity:1"
       d="m 71.342811,-1.3022 c 0.83032,0.43102 4.28441,2.07847 4.26312,1.90465 0.70213,-0.36505 1.58097,-2.52297 1.63606,-2.38313"
       id="path4306"
       sodipodi:nodetypes="ccc" />
    <path
       style="opacity:0.994;fill:none;stroke:#000000;stroke-width:0.264583px;stroke-linecap:butt;stroke-linejoin:miter;stroke-opacity:1"
       d="m 66.629011,-1.43894 c -0.0324,1.53754 -1.26578,2.39963 -0.97488,2.39133 -0.003,0.35877 0.98194,1.025 1.21821,1.73444"
       id="path4308"
       sodipodi:nodetypes="ccc" />
    <path
       style="font-variation-settings:normal;vector-effect:none;fill:#2f2f2f;fill-opacity:1;stroke:#000000;stroke-width:0.265;stroke-linecap:round;stroke-linejoin:round;stroke-miterlimit:4;stroke-dasharray:none;stroke-dashoffset:0;stroke-opacity:1;stop-color:#000000"
       d="m 63.726371,-19.81348 10.3287,-0.024 c -0.78799,-3.11321 -0.56881,-7.27605 -5.42914,-6.83136 -3.4598,-0.15503 -4.1019,1.58308 -4.89956,6.85536 z"
       id="path4318"
       sodipodi:nodetypes="cccc" />
    <text
       xml:space="preserve"
       style="font-style:normal;font-weight:normal;font-size:2.46944px;line-height:1.25;font-family:sans-serif;opacity:0.994;fill:#000000;fill-opacity:1;stroke:none;stroke-width:0.264583"
       x="64.255409"
       y="-3.8778203"
       id="text1721-6"><tspan
         sodipodi:role="line"
         id="tspan1719-7"
         x="64.255409"
         y="-3.8778203"
         style="font-style:normal;font-variant:normal;font-weight:normal;font-stretch:normal;font-size:2.46944px;font-family:Grandstander;-inkscape-font-specification:Grandstander;fill:#cdcdcd;fill-opacity:1;stroke-width:0.264583">Security</tspan></text>
    <path
       style="font-variation-settings:normal;vector-effect:none;fill:#4e4e4e;fill-opacity:1;stroke:#000000;stroke-width:0.265;stroke-linecap:butt;stroke-linejoin:round;stroke-miterlimit:4;stroke-dasharray:none;stroke-dashoffset:0;stroke-opacity:1;stop-color:#000000"
       d="m 63.747081,-19.7864 c 0,0 5.23805,4.3574 9.79224,1.40248 0.86515,-1.19682 0.51575,-1.45356 0.51575,-1.45356 z"
       id="path1683"
       sodipodi:nodetypes="cccc" />
    <text
       xml:space="preserve"
       style="font-style:normal;font-weight:normal;font-size:1.76389px;line-height:1.25;font-family:sans-serif;opacity:0.994;fill:#000000;fill-opacity:1;stroke:none;stroke-width:0.264583"
       x="65.597069"
       y="-21.519835"
       id="text1721"><tspan
         sodipodi:role="line"
         id="tspan1719"
         x="65.597069"
         y="-21.519835"
         style="font-style:normal;font-variant:normal;font-weight:normal;font-stretch:normal;font-size:1.76389px;font-family:Grandstander;-inkscape-font-specification:Grandstander;fill:#cdcdcd;fill-opacity:1;stroke-width:0.264583">Security</tspan></text>
    <circle
       style="vector-effect:none;fill:#3d3d3d;fill-opacity:1;stroke:#745f4f;stroke-width:0.264999;stroke-linecap:butt;stroke-linejoin:round;stroke-miterlimit:4;stroke-dasharray:none;stroke-dashoffset:0;stroke-opacity:1;stop-color:#000000"
       id="path1723"
       cx="65.106865"
       cy="-15.844296"
       r="1.6129596" />
    <circle
       style="vector-effect:none;fill:#3d3d3d;fill-opacity:1;stroke:#745f4f;stroke-width:0.264999;stroke-linecap:butt;stroke-linejoin:round;stroke-miterlimit:4;stroke-dasharray:none;stroke-dashoffset:0;stroke-opacity:1;stop-color:#000000"
       id="circle1725"
       cx="73.07563"
       cy="-15.899793"
       r="1.6129596" />
    <path
       style="opacity:0.994;fill:none;stroke:#745f4f;stroke-width:0.264583px;stroke-linecap:butt;stroke-linejoin:miter;stroke-opacity:0.996078"
       d="m 66.776491,-15.87532 c 1.50453,0.26842 3.10139,0.17911 4.669,-0.005"
       id="path1727"
       sodipodi:nodetypes="cc" />
    <path
       style="opacity:0.994;fill:none;stroke:#745f4f;stroke-width:0.264583px;stroke-linecap:butt;stroke-linejoin:miter;stroke-opacity:0.996078"
       d="m 74.714551,-15.9146 c 1.12425,-0.15327 1.60282,-0.49753 2.35999,-0.75981"
       id="path1729"
       sodipodi:nodetypes="cc" />
    <path
       style="opacity:0.994;fill:none;stroke:#745f4f;stroke-width:0.264583px;stroke-linecap:butt;stroke-linejoin:miter;stroke-opacity:0.996078"
       d="m 63.547021,-16.05749 c -1.15059,-0.15385 -2.3336,-0.28701 -2.93961,-0.7884"
       id="path1731"
       sodipodi:nodetypes="cc" />
    <path
       style="opacity:0.994;fill:none;stroke:#666676;stroke-width:0.765;stroke-linecap:butt;stroke-linejoin:miter;stroke-miterlimit:4;stroke-dasharray:none;stroke-opacity:0.996078"
       d="m 76.255791,-6.95886 c 0.30336,-0.47051 0.62123,-1.4372 0.88497,-1.95933"
       id="path1751"
       sodipodi:nodetypes="cc" />
    <path
       style="opacity:0.994;fill:#000000;fill-opacity:1;stroke:#666676;stroke-width:0.3;stroke-linecap:butt;stroke-linejoin:miter;stroke-miterlimit:4;stroke-dasharray:none;stroke-opacity:1;filter:url(#filter1747)"
       d="m 150.24027,148.25487 2.64092,2.66872 -2.32692,1.76377 -2.73132,-3.14776 z"
       id="path1733"
       sodipodi:nodetypes="ccccc"
       transform="rotate(62.139765,242.29698,11.220776)" />
    <path
       style="opacity:0.994;fill:#e3dedb;stroke:#000000;stroke-width:0.265094px;stroke-linecap:butt;stroke-linejoin:miter;stroke-opacity:1"
       d="m 76.251161,-2.06592 c -0.65231,-1.04945 0.1967,-0.46451 0.4599,-0.55031 l 0.27097,-0.70285 c 0.48636,-0.19366 -1.16104,-2.46729 1.18765,-1.5376 0.51515,0.39986 0.16732,2.92486 -0.17534,2.96546 -1.09623,0.51051 -1.19804,0.29876 -1.74335,-0.17571 z"
       id="path4302"
       sodipodi:nodetypes="ccccccc" />
  </g>
</svg>
