<?xml version="1.0" encoding="UTF-8" standalone="no"?>
<svg
   xmlns:dc="http://purl.org/dc/elements/1.1/"
   xmlns:cc="http://creativecommons.org/ns#"
   xmlns:rdf="http://www.w3.org/1999/02/22-rdf-syntax-ns#"
   xmlns:svg="http://www.w3.org/2000/svg"
   xmlns="http://www.w3.org/2000/svg"
   xmlns:sodipodi="http://sodipodi.sourceforge.net/DTD/sodipodi-0.dtd"
   xmlns:inkscape="http://www.inkscape.org/namespaces/inkscape"
   width="27.590263mm"
   height="47.191082mm"
   viewBox="0 0 27.590263 47.191082"
   version="1.1"
   id="svg6516"
   inkscape:version="1.0.2 (e86c870879, 2021-01-15, custom)"
   sodipodi:docname="thief.svg">
  <defs
     id="defs6510" />
  <sodipodi:namedview
     id="base"
     pagecolor="#ffffff"
     bordercolor="#666666"
     borderopacity="1.0"
     inkscape:pageopacity="0.0"
     inkscape:pageshadow="2"
     inkscape:zoom="0.35"
     inkscape:cx="303.56764"
     inkscape:cy="166.32285"
     inkscape:document-units="mm"
     inkscape:current-layer="layer1"
     inkscape:document-rotation="0"
     showgrid="false"
     inkscape:window-width="902"
     inkscape:window-height="1021"
     inkscape:window-x="1004"
     inkscape:window-y="45"
     inkscape:window-maximized="0" />
  <metadata
     id="metadata6513">
    <rdf:RDF>
      <cc:Work
         rdf:about="">
        <dc:format>image/svg+xml</dc:format>
        <dc:type
           rdf:resource="http://purl.org/dc/dcmitype/StillImage" />
        <dc:title></dc:title>
      </cc:Work>
    </rdf:RDF>
  </metadata>
  <g
     inkscape:label="Layer 1"
     inkscape:groupmode="layer"
     id="layer1"
     transform="translate(-25.514395,-104.16041)">
    <path
       style="display:inline;opacity:0.994;fill:#312800;fill-opacity:1;stroke:#000000;stroke-width:0.264583px;stroke-linecap:butt;stroke-linejoin:miter;stroke-opacity:1"
       d="m 35.10512,145.84791 c -0.29298,1.4328 0.95286,1.93723 3.6623,2.87156 1.97183,0.51091 5.32954,-4.52489 8.8653,-7.64251 1.04763,-0.92374 3.11436,0.34949 3.90587,0.45741 0,0 0.67347,1.00215 1.15059,0.53186 1.18568,-1.13664 -1.6887,-2.42928 -1.6887,-2.42928 -1.64145,-0.43942 -2.89518,-0.007 -4.20346,0.30258 l -4.45262,5.99909 c -2.02441,-0.16153 -3.76525,1.66576 -4.17853,0.0331 z"
       id="path4999"
       sodipodi:nodetypes="ccsccccccc" />
    <path
       style="opacity:0.994;fill:#483e37;stroke:#000000;stroke-width:0.264583px;stroke-linecap:butt;stroke-linejoin:miter;stroke-opacity:1"
       d="m 42.54819,147.32363 c 0,0 1.7842,-0.15789 1.81626,-0.0683 0.53214,1.89704 1.79692,1.85627 2.14651,2.46017 -0.25839,0.53797 -1.6552,-0.46232 -1.67879,-0.41459 -0.0528,0.0424 0.72129,1.30063 0.68901,1.32843 -0.10425,0.0544 -1.40358,-1.17435 -1.47671,-1.1156 -0.0868,0.0327 0.747,1.46633 0.44064,1.55204 -0.39138,0.0774 -2.00169,-1.86491 -1.93692,-3.74215 z"
       id="path5001"
       sodipodi:nodetypes="cccccccc" />
    <path
       style="opacity:0.994;fill:#483e37;stroke:#000000;stroke-width:0.264583px;stroke-linecap:butt;stroke-linejoin:miter;stroke-opacity:1"
       d="m 29.43623,146.28051 c 1.29911,-0.55435 1.53346,0.91432 1.53346,0.91432 0.2687,1.91224 -0.86017,2.86458 -1.73917,3.97442 -0.40294,-0.29662 0.53481,-1.48757 0.253,-1.56811 -0.17477,-0.0963 -1.31845,1.22251 -1.44959,1.01582 -0.1373,-0.15911 0.68076,-1.19583 0.47522,-1.31972 -0.0883,-0.0877 -1.81063,1.01869 -2.06539,0.93279 -0.0473,-0.3153 3.53254,-2.65315 2.99247,-3.94952 z"
       id="path5003"
       sodipodi:nodetypes="cccccccc" />
    <path
       style="display:inline;opacity:0.994;fill:#938b85;fill-opacity:1;stroke:#000000;stroke-width:0.264583px;stroke-linecap:butt;stroke-linejoin:miter;stroke-opacity:1"
       d="m 27.85255,131.16027 17.91141,0.41554 c 1.59246,7.26428 1.78067,13.13877 -1.39951,15.67952 -1.75194,0.1194 -2.68968,0.31599 -4.53839,-1.16337 -1.91272,-0.03 -4.32697,0.38689 -5.88399,-0.0768 -0.94882,0.95528 -2.60205,1.08489 -4.04858,1.27956 -2.50387,-2.75305 -4.44591,-5.47176 -2.04094,-16.13445 z"
       id="path5005"
       sodipodi:nodetypes="ccccccc" />
    <path
       style="display:inline;opacity:0.994;fill:#938b85;fill-opacity:1;stroke:#000000;stroke-width:0.264583px;stroke-linecap:butt;stroke-linejoin:miter;stroke-opacity:1"
       d="m 43.67572,118.39779 c 2.20667,3.07643 3.45232,9.25547 1.85513,13.80565 -5.59008,5.69317 -18.48763,2.58217 -17.6783,-1.04317 -0.51919,-4.51775 -1.64003,-8.45149 2.58138,-13.51843 10.05678,-2.21347 9.50262,-0.0407 13.24179,0.75595 z"
       id="path5007"
       sodipodi:nodetypes="ccccc" />
    <path
       style="opacity:0.994;fill:#938b85;fill-opacity:1;stroke:#000000;stroke-width:0.264583px;stroke-linecap:butt;stroke-linejoin:miter;stroke-opacity:1"
       d="m 30.65854,121.28025 c -1.75159,-2.16886 -3.5036,-4.33744 -1.57828,-8.90927 -0.84666,0.65807 -6.79837,-2.49994 -0.7569,-8.05859 1.23289,0.14974 2.42454,1.34831 3.56835,3.76379 2.53313,-0.92367 5.49078,-1.02324 9.40173,-0.0632 1.16133,-1.53049 2.12181,-3.95429 3.79664,-3.55408 3.3308,3.17976 2.59758,5.8912 -0.27192,8.35647 1.07598,4.44994 -0.61992,6.3457 -1.95737,8.57177"
       id="path5009"
       sodipodi:nodetypes="cccccccc" />
    <path
       style="opacity:0.994;fill:#565656;fill-opacity:1;stroke:#000000;stroke-width:0.264583px;stroke-linecap:butt;stroke-linejoin:miter;stroke-opacity:1"
       d="m 28.75629,113.19971 c 5.07333,-1.78947 10.42211,-1.94828 16.06187,-0.38437 l 0.33538,3.19215 c -5.55503,0.29058 -11.21222,0.25089 -16.91626,0.22542 -0.048,-1.05442 0.14623,-2.06134 0.51901,-3.0332 z"
       id="path5033"
       sodipodi:nodetypes="ccccc" />
    <path
       id="path5011"
       style="opacity:0.994;fill:#000000;fill-opacity:1;stroke-width:0.057;stop-color:#000000"
       d="m 42.32383,114.04154 a 1.4384242,1.651348 0 0 1 -1.43842,1.65135 1.4384242,1.651348 0 0 1 -1.43842,-1.65135 1.4384242,1.651348 0 0 1 1.43842,-1.65135 1.4384242,1.651348 0 0 1 1.43842,1.65135 z" />
    <ellipse
       style="opacity:0.994;fill:#282828;fill-opacity:1;stroke-width:0.057;stop-color:#000000"
       id="ellipse5013"
       cx="32.819546"
       cy="114.08263"
       rx="1.20689"
       ry="1.5058854" />
    <path
       style="opacity:0.994;fill:none;stroke:#000000;stroke-width:0.264583px;stroke-linecap:butt;stroke-linejoin:miter;stroke-opacity:1"
       d="m 42.87935,105.78769 c -0.93665,1.96709 -0.6959,3.80036 0.0906,5.57161"
       id="path5015"
       sodipodi:nodetypes="cc" />
    <path
       style="opacity:0.994;fill:none;stroke:#000000;stroke-width:0.264583px;stroke-linecap:butt;stroke-linejoin:miter;stroke-opacity:1"
       d="m 30.58349,105.83995 c 0.53322,2.54942 -0.0547,4.14254 -0.74392,5.64932"
       id="path5017"
       sodipodi:nodetypes="cc" />
    <path
       style="opacity:0.994;fill:none;stroke:#000000;stroke-width:0.264583px;stroke-linecap:butt;stroke-linejoin:miter;stroke-opacity:1"
       d="m 34.98336,118.39339 c 0.52395,0.6247 0.64857,1.88612 1.6863,1.69159 0.87431,-0.0139 1.50084,-0.74109 2.11042,-1.51709"
       id="path5019"
       sodipodi:nodetypes="ccc" />
    <path
       style="opacity:0.994;fill:#e3dedb;stroke:#000000;stroke-width:0.264583px;stroke-linecap:butt;stroke-linejoin:miter;stroke-opacity:1"
       d="m 39.61409,132.48911 c -0.81612,-0.0813 -1.38487,0.55344 -1.93272,1.24868 0.12409,0.54007 0.23999,0.56352 0.35568,0.57451 l 0.91895,-0.80245 c -0.0618,0.54097 -1.01039,0.69201 -0.18548,1.53452 0.61201,0.21842 2.16565,-0.92402 2.28672,-1.32345 -0.15547,-1.197 -0.7522,-1.02816 -1.44315,-1.23181 z"
       id="path5021"
       sodipodi:nodetypes="ccccccc" />
    <path
       style="opacity:0.994;fill:#e3dedb;stroke:#000000;stroke-width:0.264583px;stroke-linecap:butt;stroke-linejoin:miter;stroke-opacity:1"
       d="m 34.58629,132.13816 c -0.6254,0.15607 -1.01844,0.3024 -1.28931,0.95539 0.53346,0.93923 1.2062,1.10474 2.03575,1.36108 l -0.47616,-1.2028 1.05388,0.86935 c 0.10259,-0.51355 0.33381,-0.97686 0.0679,-1.63434 -0.45514,-0.55045 -0.92646,-0.30945 -1.39206,-0.34868 z"
       id="path5023"
       sodipodi:nodetypes="ccccccc" />
    <path
       style="opacity:0.994;fill:none;stroke:#000000;stroke-width:0.264583px;stroke-linecap:butt;stroke-linejoin:miter;stroke-opacity:1"
       d="m 39.18511,129.24707 c -0.36259,1.84879 0.7489,1.42096 0.87267,1.78481 0.27489,0.33039 -0.22052,0.61265 -0.44369,1.45723"
       id="path5025"
       sodipodi:nodetypes="ccc" />
    <path
       style="opacity:0.994;fill:none;stroke:#000000;stroke-width:0.264583px;stroke-linecap:butt;stroke-linejoin:miter;stroke-opacity:1"
       d="m 34.61324,129.12606 c -0.0324,1.53754 -2.42284,2.02313 -2.13194,2.01483 -0.003,0.35877 0.8663,0.73419 1.10257,1.44363"
       id="path5027"
       sodipodi:nodetypes="ccc" />
    <path
       style="opacity:0.994;fill:#262626;fill-opacity:1;stroke:#050000;stroke-width:0.264583px;stroke-linecap:butt;stroke-linejoin:miter;stroke-opacity:0.976592"
       d="m 33.1214,109.70267 c 1.91767,0.47528 4.15532,0.72431 7.93103,-0.11411 0.42083,-0.45067 -0.76689,-5.22623 -3.63891,-5.29396 -1.28289,2.43402 -6.24444,2.94054 -4.29212,5.40807 z"
       id="path5031"
       sodipodi:nodetypes="cccc" />
    <path
       style="opacity:0.994;fill:#262626;fill-opacity:1;stroke:#000000;stroke-width:0.065;stroke-linecap:butt;stroke-linejoin:miter;stroke-miterlimit:4;stroke-dasharray:none;stroke-opacity:1"
       d="m 28.04854,121.98099 17.15913,-0.17208 c 0.27761,0.5356 0.45439,1.13937 0.48607,1.84124 l -18.10171,0.11574 c -0.0265,-0.65555 0.11348,-1.23892 0.45651,-1.7849 z"
       id="path5035"
       sodipodi:nodetypes="ccccc" />
    <path
       style="opacity:0.994;fill:#262626;fill-opacity:1;stroke:#000000;stroke-width:0.065;stroke-linecap:butt;stroke-linejoin:miter;stroke-miterlimit:4;stroke-dasharray:none;stroke-opacity:1"
       d="m 27.50775,124.50182 18.34656,-0.16314 c 0.15695,0.56647 0.29473,1.14233 0.2399,1.81247 l -18.7184,0.072 c -0.0257,-0.61956 -0.0475,-1.10868 0.13194,-1.72129 z"
       id="path5037"
       sodipodi:nodetypes="ccccc" />
    <path
       style="opacity:0.994;fill:#262626;fill-opacity:1;stroke:#000000;stroke-width:0.065;stroke-linecap:butt;stroke-linejoin:miter;stroke-miterlimit:4;stroke-dasharray:none;stroke-opacity:1"
       d="m 27.47176,126.90104 18.63222,-0.17898 c 0.117,0.51959 0.097,1.02324 0.0239,1.52072 l -18.52272,0.14887 c -0.10648,-0.58635 -0.19462,-0.82699 -0.13343,-1.49061 z"
       id="path5039"
       sodipodi:nodetypes="ccccc" />
    <path
       style="opacity:0.994;fill:#262626;fill-opacity:1;stroke:#000000;stroke-width:0.065;stroke-linecap:butt;stroke-linejoin:miter;stroke-miterlimit:4;stroke-dasharray:none;stroke-opacity:1"
       d="m 27.21024,134.80173 c 7.05513,1.89714 13.45041,1.85602 19.18135,-0.13653 0.15695,0.56647 0.34226,1.38769 0.28743,2.05783 -6.56728,0.67403 -13.28599,1.40676 -19.72654,-0.26691 -0.0257,-0.61955 0.0783,-1.04179 0.25776,-1.65439 z"
       id="path5041"
       sodipodi:nodetypes="ccccc" />
  </g>
</svg>
