<?xml version="1.0" encoding="UTF-8" standalone="no"?>
<!-- Created with Inkscape (http://www.inkscape.org/) -->

<svg
   width="32.704666mm"
   height="47.177803mm"
   viewBox="0 0 32.704666 47.177803"
   version="1.1"
   id="svg5173"
   xmlns:inkscape="http://www.inkscape.org/namespaces/inkscape"
   xmlns:sodipodi="http://sodipodi.sourceforge.net/DTD/sodipodi-0.dtd"
   xmlns="http://www.w3.org/2000/svg"
   xmlns:svg="http://www.w3.org/2000/svg">
  <sodipodi:namedview
     id="namedview5175"
     pagecolor="#ffffff"
     bordercolor="#666666"
     borderopacity="1.0"
     inkscape:showpageshadow="2"
     inkscape:pageopacity="0.0"
     inkscape:pagecheckerboard="0"
     inkscape:deskcolor="#d1d1d1"
     inkscape:document-units="mm"
     showgrid="false" />
  <defs
     id="defs5170" />
  <g
     inkscape:label="Layer 1"
     inkscape:groupmode="layer"
     id="layer1"
     transform="translate(-44.054444,-80.864492)">
    <path
       style="display:inline;opacity:0.994;fill:#554400;stroke:#000000;stroke-width:0.264583px;stroke-linecap:butt;stroke-linejoin:miter;stroke-opacity:1"
       d="m 53.645173,122.5387 c -0.29298,1.4328 1.561664,4.07356 2.888443,2.87601 4.547871,-3.6141 8.369469,-13.78313 9.836819,-12.7704 1.67539,1.01286 1.10243,2.22052 3.99678,3.90803 2.01819,1.17669 5.64504,6.35461 6.05658,5.70113 1.18568,-1.13664 -3.12651,-6.24736 -5.03159,-7.93987 -1.67353,-2.28067 -2.97248,-2.98404 -4.91866,-4.18722 -3.125255,-1.86184 -9.354347,14.16879 -9.767624,12.53609 z"
       id="path4736"
       sodipodi:nodetypes="cccsccccc" />
    <path
       style="opacity:0.994;fill:#483e37;stroke:#000000;stroke-width:0.264583px;stroke-linecap:butt;stroke-linejoin:miter;stroke-opacity:1"
       d="m 61.088246,124.01442 c 0,0 1.784195,-0.15789 1.816256,-0.0683 0.532139,1.89704 1.796923,1.85627 2.146513,2.46017 -0.25839,0.53797 -1.655208,-0.46232 -1.678798,-0.41459 -0.05275,0.0424 0.721298,1.30063 0.689018,1.32843 -0.10425,0.0544 -1.40358,-1.17435 -1.476712,-1.1156 -0.0868,0.0327 0.747,1.46633 0.440637,1.55204 -0.391376,0.0774 -2.001686,-1.86491 -1.936914,-3.74215 z"
       id="path4738"
       sodipodi:nodetypes="cccccccc" />
    <path
       style="opacity:0.994;fill:#483e37;stroke:#000000;stroke-width:0.264583px;stroke-linecap:butt;stroke-linejoin:miter;stroke-opacity:1"
       d="m 47.976277,122.9713 c 1.299114,-0.55435 1.533464,0.91432 1.533464,0.91432 0.268697,1.91224 -0.860171,2.86458 -1.739171,3.97442 -0.40294,-0.29662 0.534811,-1.48757 0.253006,-1.56811 -0.174774,-0.0963 -1.318454,1.22251 -1.449591,1.01582 -0.137302,-0.15911 0.680757,-1.19583 0.475221,-1.31972 -0.08828,-0.0877 -1.810634,1.01869 -2.065393,0.93279 -0.04731,-0.3153 3.532543,-2.65315 2.992464,-3.94952 z"
       id="path4740"
       sodipodi:nodetypes="cccccccc" />
    <path
       style="display:inline;opacity:0.994;fill:#c8beb7;stroke:#000000;stroke-width:0.264583px;stroke-linecap:butt;stroke-linejoin:miter;stroke-opacity:1"
       d="m 46.392606,107.85106 17.911409,0.41554 c 1.59246,7.26428 1.78067,13.13877 -1.399513,15.67952 -1.751937,0.1194 -2.68968,0.31599 -4.538393,-1.16337 -1.912713,-0.03 -4.326968,0.38689 -5.883992,-0.0768 -0.948812,0.95528 -2.602043,1.08489 -4.048574,1.27956 -2.503872,-2.75305 -4.445908,-5.47176 -2.040937,-16.13445 z"
       id="path4742"
       sodipodi:nodetypes="ccccccc" />
    <path
       style="display:inline;opacity:0.994;fill:#c8beb7;stroke:#000000;stroke-width:0.264583px;stroke-linecap:butt;stroke-linejoin:miter;stroke-opacity:1"
       d="m 62.215774,95.088574 c 2.206671,3.076436 3.452321,9.255476 1.855131,13.805656 -5.59008,5.69317 -18.48763,2.58217 -17.678299,-1.04317 -0.51919,-4.51775 -1.640033,-8.45149 2.581374,-13.518429 10.056782,-2.213469 9.502625,-0.04071 13.241794,0.755943 z"
       id="path4744"
       sodipodi:nodetypes="ccccc" />
    <path
       style="opacity:0.994;fill:#c8beb7;stroke:#000000;stroke-width:0.264583px;stroke-linecap:butt;stroke-linejoin:miter;stroke-opacity:1"
       d="m 49.198588,97.97104 c -1.751584,-2.16886 -3.503601,-4.337441 -1.578279,-8.909272 -0.846658,0.658075 -6.798369,-2.499938 -0.756899,-8.058587 1.232888,0.149739 2.424541,1.348307 3.568351,3.763788 2.533126,-0.923665 5.490782,-1.02324 9.401732,-0.06323 1.161324,-1.530495 2.121805,-3.954287 3.796634,-3.554076 3.330808,3.179753 2.597588,5.891196 -0.27192,8.356468 1.075988,4.449937 -0.619914,6.345699 -1.957361,8.571769"
       id="path4746"
       sodipodi:nodetypes="cccccccc" />
    <path
       id="path4748"
       style="opacity:0.994;fill:#000000;fill-opacity:1;stroke-width:0.057;stop-color:#000000"
       d="m 60.863885,90.732328 a 1.4384242,1.651348 0 0 1 -1.438424,1.651348 1.4384242,1.651348 0 0 1 -1.438424,-1.651348 1.4384242,1.651348 0 0 1 1.438424,-1.651348 1.4384242,1.651348 0 0 1 1.438424,1.651348 z" />
    <ellipse
       style="opacity:0.994;fill:#282828;fill-opacity:1;stroke-width:0.057;stop-color:#000000"
       id="ellipse4750"
       cx="51.359589"
       cy="90.773415"
       rx="1.20689"
       ry="1.5058854" />
    <path
       style="opacity:0.994;fill:none;stroke:#000000;stroke-width:0.264583px;stroke-linecap:butt;stroke-linejoin:miter;stroke-opacity:1"
       d="m 61.419406,82.478477 c -0.936653,1.967092 -0.6959,3.800365 0.09056,5.571616"
       id="path4752"
       sodipodi:nodetypes="cc" />
    <path
       style="opacity:0.994;fill:none;stroke:#000000;stroke-width:0.264583px;stroke-linecap:butt;stroke-linejoin:miter;stroke-opacity:1"
       d="m 49.123544,82.530734 c 0.533221,2.549428 -0.05474,4.142544 -0.743923,5.649323"
       id="path4754"
       sodipodi:nodetypes="cc" />
    <path
       style="opacity:0.994;fill:none;stroke:#000000;stroke-width:0.264583px;stroke-linecap:butt;stroke-linejoin:miter;stroke-opacity:1"
       d="m 52.906014,96.29548 c 1.028036,-0.0525 1.265972,0.67482 2.303693,0.48029 0.874313,-0.0139 1.420272,-0.1292 2.029852,-0.9052"
       id="path4756"
       sodipodi:nodetypes="ccc" />
    <path
       style="opacity:0.994;fill:#e3dedb;stroke:#000000;stroke-width:0.264583px;stroke-linecap:butt;stroke-linejoin:miter;stroke-opacity:1"
       d="m 58.5748,98.79261 c -0.169822,-0.80238 -0.94706,-1.15205 -1.775627,-1.46348 -0.477076,0.28192 -0.464299,0.39947 -0.439721,0.51306 l 1.043187,0.63258 c -0.534247,0.10507 -0.965641,-0.75319 -1.51858,0.28823 -0.02223,0.64945 1.536818,1.78383 1.954152,1.77818 1.073958,-0.54245 0.522849,-1.39629 0.736589,-1.74857 z"
       id="path4758"
       sodipodi:nodetypes="ccccccc" />
    <path
       style="opacity:0.994;fill:#e3dedb;stroke:#000000;stroke-width:0.264583px;stroke-linecap:butt;stroke-linejoin:miter;stroke-opacity:1"
       d="m 50.820452,107.3782 c -0.64434,-0.0174 -1.062227,0.0181 -1.498367,0.57444 0.261895,1.04792 0.865564,1.38786 1.595927,1.85737 l -0.135985,-1.28645 0.781981,1.12023 c 0.236623,-0.46719 0.58367,-0.85148 0.503901,-1.5562 -0.290757,-0.65238 -0.809464,-0.54667 -1.24746,-0.70939 z"
       id="path4760"
       sodipodi:nodetypes="ccccccc" />
    <path
       style="opacity:0.994;fill:none;stroke:#000000;stroke-width:0.264583px;stroke-linecap:butt;stroke-linejoin:miter;stroke-opacity:1"
       d="m 62.170046,103.55116 c -0.362592,1.84879 -1.405408,-0.83573 -2.181208,-1.47298 -0.297198,-0.69746 -1.496375,-0.6991 -1.867245,-1.75446"
       id="path4762"
       sodipodi:nodetypes="ccc" />
    <path
       style="opacity:0.994;fill:none;stroke:#000000;stroke-width:0.264583px;stroke-linecap:butt;stroke-linejoin:miter;stroke-opacity:1"
       d="m 50.663263,103.25806 c -0.03239,1.53754 -1.265781,2.39963 -0.974878,2.39133 -0.0027,0.35877 0.380006,1.10871 0.616276,1.81815"
       id="path4764"
       sodipodi:nodetypes="ccc" />
  </g>
</svg>
