<svg width="25.567" height="25.262" viewBox="0 0 6.765 6.684" xmlns="http://www.w3.org/2000/svg"><g style="opacity:.994"><path style="fill:#e3dedb;stroke:#000;stroke-width:.264583px;stroke-linecap:butt;stroke-linejoin:miter;stroke-opacity:1" d="M93.45 114.34c-.816-.082-1.384.553-1.932 1.248.124.54.24.564.355.575l.92-.802c-.062.54-1.011.692-.186 1.534.612.218 2.165-.924 2.287-1.323-.156-1.197-.753-1.029-1.444-1.232zM89.7 114.501c-.625.156-1.018.302-1.29.955.534.94 1.207 1.105 2.036 1.361l-.476-1.202 1.054.869c.103-.514.334-.977.068-1.634-.455-.55-.926-.31-1.392-.349z" transform="translate(-88.264 -110.372)"/><path style="fill:none;stroke:#000;stroke-width:.264583px;stroke-linecap:butt;stroke-linejoin:miter;stroke-opacity:1" d="M94.029 110.496c-.363 1.849.343 1.809.467 2.173.275.33-.822.826-1.046 1.67M89.457 110.375c-.033 1.538-1.266 2.4-.975 2.392-.003.358.982 1.025 1.218 1.734" transform="translate(-88.264 -110.372)"/></g></svg>