<svg width="82.818" height="163.636" viewBox="0 0 21.912 43.295" xmlns="http://www.w3.org/2000/svg"><path style="display:inline;opacity:.994;fill:#c8beb7;stroke:#000;stroke-width:.264583px;stroke-linecap:butt;stroke-linejoin:miter;stroke-opacity:1" d="m211.943 32.285 17.911.415c1.593 7.265 1.781 13.14-1.4 15.68-1.751.12-2.689.316-4.537-1.163-1.913-.03-4.327.387-5.884-.077-.95.955-2.603 1.085-4.049 1.28-2.504-2.754-4.446-5.472-2.041-16.135z" transform="translate(-209.605 -5.298)"/><path style="display:inline;opacity:.994;fill:#c8beb7;stroke:#000;stroke-width:.264583px;stroke-linecap:butt;stroke-linejoin:miter;stroke-opacity:1" d="M227.766 19.522c2.207 3.077 3.453 9.256 1.855 13.806-5.59 5.693-18.487 2.582-17.678-1.043-.52-4.518-1.64-8.452 2.581-13.518 10.057-2.214 9.503-.041 13.242.755z" transform="translate(-209.605 -5.298)"/><path style="opacity:.994;fill:#c8beb7;stroke:#000;stroke-width:.264583px;stroke-linecap:butt;stroke-linejoin:miter;stroke-opacity:1" d="M214.749 22.405c-1.752-2.169-3.504-4.338-1.578-8.91-.847.659-6.799-2.5-.757-8.058 1.233.15 2.424 1.348 3.568 3.764 2.533-.924 5.491-1.023 9.402-.063 1.161-1.53 2.122-3.955 3.797-3.554 3.33 3.18 2.597 5.89-.272 8.356 1.076 4.45-.62 6.346-1.958 8.572" transform="translate(-209.605 -5.298)"/><path style="opacity:.994;fill:none;stroke:#000;stroke-width:.264583px;stroke-linecap:butt;stroke-linejoin:miter;stroke-opacity:1" d="M226.97 6.912c-.937 1.967-.696 3.8.09 5.572M214.674 6.965c.533 2.549-.055 4.142-.744 5.649" transform="translate(-209.605 -5.298)"/></svg>