<svg width="10.169" height="9.562" viewBox="0 0 2.69 2.53" xmlns="http://www.w3.org/2000/svg"><g style="display:inline;opacity:.994"><path style="fill:#f7836e;fill-opacity:1;stroke:#323232;stroke-width:.0529167;stroke-dasharray:none;stroke-opacity:1;stop-color:#000" d="m223.884 18.836-.456-.16-.332.372.011-.484-.457-.2.464-.14.05-.496.275.398.488-.106-.294.385z" transform="translate(-221.3 -17.654)"/><path style="fill:#f7836e;fill-opacity:1;stroke:#323232;stroke-width:.0529167;stroke-dasharray:none;stroke-opacity:1;stop-color:#000" d="m223.776 18.634-.346-.072-.176.32-.038-.35-.36-.07.323-.144-.046-.363.237.262.331-.156-.175.306z" transform="translate(-222.319 -16.957)"/><path style="fill:#f7836e;fill-opacity:1;stroke:#323232;stroke-width:.0529167;stroke-dasharray:none;stroke-opacity:1;stop-color:#000" d="m223.616 18.572-.234-.072-.119.21-.003-.244-.237-.048.231-.078-.027-.24.146.195.22-.1-.14.199z" transform="translate(-222.922 -16.279)"/></g></svg>