<svg width="68.681" height="17.093" viewBox="0 0 18.172 4.523" xmlns="http://www.w3.org/2000/svg"><g style="opacity:.994"><g style="display:inline"><path style="fill:#483e37;stroke:#000;stroke-width:.264583px;stroke-linecap:butt;stroke-linejoin:miter;stroke-opacity:1" d="M97.258 128.343s1.738-.154 1.77-.064c.532 1.897 1.594 1.75 1.58 2.137-.26.538-1.235-.371-1.259-.324-.053.043.714.925.431 1.16-.264.138-1.035-.789-1.108-.73-.087.033.492 1.052.186 1.138-.391.077-1.665-1.44-1.6-3.317zM84.28 127.53c1.299-.555 1.533.914 1.533.914.269 1.912-1.04 2.875-1.244 2.817-.403-.297.264-.88-.018-.96-.175-.096-.83.97-.961.763-.138-.16.3-.681.095-.805-.089-.088-.687.592-.983.462-.047-.316 2.118-1.895 1.578-3.191z" transform="translate(-82.568 -127.273)"/></g></g></svg>