<svg width="76.915" height="20.137" viewBox="0 0 20.35 5.328" xmlns="http://www.w3.org/2000/svg"><g style="opacity:.994"><path style="fill:#483e37;stroke:#000;stroke-width:.264583px;stroke-linecap:butt;stroke-linejoin:miter;stroke-opacity:1" d="M97.392 128.573s1.784-.158 1.816-.068c.532 1.897 1.797 1.856 2.146 2.46-.258.538-1.655-.463-1.678-.415-.053.042.72 1.3.689 1.329-.105.054-1.404-1.175-1.477-1.116-.087.033.747 1.466.44 1.552-.39.077-2.001-1.865-1.936-3.742zM84.28 127.53c1.299-.555 1.533.914 1.533.914.269 1.912-.86 2.865-1.74 3.974-.402-.296.536-1.487.254-1.568-.175-.096-1.319 1.223-1.45 1.016-.137-.159.681-1.196.476-1.32-.089-.087-1.811 1.02-2.066.933-.047-.315 3.533-2.653 2.993-3.95z" transform="translate(-81.154 -127.273)"/></g></svg>