<svg width="79.743" height="22.127" viewBox="0 0 21.099 5.855" xmlns="http://www.w3.org/2000/svg"><g style="opacity:.994"><g style="display:inline"><path style="fill:#483e37;stroke:#000;stroke-width:.264583px;stroke-linecap:butt;stroke-linejoin:miter;stroke-opacity:1" d="M97.392 128.573s1.784-.158 1.816-.068c.532 1.897 2.286 1.002 2.65 2.627-.021.532-2.159-.63-2.182-.582-.053.042 2.678 1.846 1.116 1.778-.286.103-1.969-1.487-2.042-1.428-.087.033 2.282 2.727.276 1.957-1.419-.946-1.7-2.407-1.634-4.284zM84.28 127.53c1.299-.555 1.533.914 1.533.914.269 1.912.079 3.592-1.316 4.404-.56-.613.138-1.667-.17-1.998-.175-.096-.603 1.56-1.771 1.677-.34-.855 1.002-1.857.797-1.98-.089-.088-1.12 1.16-2.314 1.09-.29-2.189 3.78-2.81 3.24-4.107z" transform="translate(-80.892 -127.273)"/></g></g></svg>