<svg width="50.757" height="37.63" viewBox="0 0 13.429 9.956" xml:space="preserve" xmlns="http://www.w3.org/2000/svg"><g style="display:inline;opacity:.996;stroke-width:1.00007;stroke-miterlimit:4;stroke-dasharray:none"><path style="display:inline;opacity:.995;fill:#edf1e9;fill-opacity:1;fill-rule:nonzero;stroke:#2f2f2f;stroke-width:1.00007;stroke-linecap:butt;stroke-linejoin:miter;stroke-miterlimit:4;stroke-dasharray:none;stroke-opacity:1" d="M94.805 218.137c2.864 1.502 8.264 1.702 9.125-1.686.679-1.563-.873-3.416.324-4.703 1.518-3.362-.95-5.075-3.663-7.184-2.986-2.608-6.371-1.89-9.645.674-1.165.178-3.082-3.12-4.537-3.265-2.684-.666-4.596 1.118-6.76 2.927-1.328.884-4.038-1.882-5.602-1.106-3.15.735-4.083 3.026-5.082 6.23-1.225 3.613.104 5.451 3.03 8.011 1.215.938 3.635.74 5.118.122-.847 2.074-6.178 7.692-5.302 10.012 13.05-7.734 12.94-5.246 22.791-1.355 2.481-1.427 2.93-2.052 2.225-2.946-.857-1.77-1.8-3.793-2.022-5.731z" transform="translate(-24.562 -72.708) scale(.36113)"/><path style="display:inline;fill:none;fill-opacity:1;stroke:#2f2f2f;stroke-width:1.00007;stroke-linecap:butt;stroke-linejoin:miter;stroke-miterlimit:4;stroke-dasharray:none;stroke-opacity:1" d="M92.708 211.46c1.435 2.437 3.416 2.882 6.164 2.555.973-.069 1.093-.352 1.555-1.326m-17.12-1.053c2.191 1.993 3.528 3.31 6.568 2.216 1.91-.684 2.97-2.063 4.108-3.685m-20.89 2.846c2.177 1.273 3.178 1.901 5.239.102.365-.296.573-1.041.87-1.405m24.34.913-1.59-.047m-4.402 1.7c-.86 4.52-3.485 1.424-2.763 3.727m-19.334.703c1.068-2.273 1.743-2.396.888-4.813" transform="translate(-24.562 -72.708) scale(.36113)"/></g></svg>