<svg width="44.916" height="35.512" viewBox="0 0 11.884 9.396" xml:space="preserve" xmlns="http://www.w3.org/2000/svg"><g style="display:inline;opacity:.994"><path style="fill:#d27876;fill-opacity:1;stroke:#000;stroke-width:.264583px;stroke-linecap:butt;stroke-linejoin:miter;stroke-opacity:1" d="M29.613 79.17c-.066.184-.602 2.55-.335 2.817.201.2 1.975-2.09 2.168-1.996 1.498.726 4.977.615 6.855.092.432-.12 2.312 1.821 2.498 1.656.152-.135-.458-2.181-.53-2.341-2.607-2.485-4.444-2.49-6.554-4.973-1.316-.452-2.413 1.941-4.102 4.745z" transform="translate(-29.072 -72.735)"/><path style="display:inline;opacity:.994;fill:#dfa9a7;fill-opacity:1;stroke:#000;stroke-width:.15875;stroke-linecap:butt;stroke-linejoin:miter;stroke-dasharray:none;stroke-opacity:1" d="M217.838 4.233c.371 1.834 3.518 1.331 1.901-.375-1.036-.857-1.8-.608-1.901.375z" transform="translate(-214.65 -3.256)"/></g></svg>