<svg width="28.364" height="29.683" viewBox="0 0 7.505 7.854" xml:space="preserve" xmlns="http://www.w3.org/2000/svg"><g style="display:inline;opacity:.994"><path style="font-variation-settings:normal;opacity:1;fill:#44403c;fill-opacity:1;stroke:#000;stroke-width:.265;stroke-linecap:round;stroke-linejoin:round;stroke-miterlimit:4;stroke-dasharray:none;stroke-dashoffset:0;stroke-opacity:1;stop-color:#000;stop-opacity:1" d="M141 132.886c2.666.208 1.8.307 5.062-.247-.617-2.435.595-6.726-1.512-6.715-.524.003-1.327-.035-1.743 0-2.324-.005-1.339 1.53-2.136 6.803z" transform="translate(-139.462 -125.776)"/><path style="font-variation-settings:normal;opacity:1;fill:#44403c;fill-opacity:1;stroke:#000;stroke-width:.265;stroke-linecap:butt;stroke-linejoin:round;stroke-miterlimit:4;stroke-dasharray:none;stroke-dashoffset:0;stroke-opacity:1;stop-color:#000;stop-opacity:1" d="M143.021 133.498c2.693-.205 2.966.084 3.813-.052-.062-.627-.012-.957-.012-.957-.744 0-.547-.002-3.163-.009-2.34-.006-3.246-.354-4.065-.257.025.858-.008.276.038.973 1.323.17 1.64.223 3.39.302z" transform="translate(-139.462 -125.776)"/></g></svg>