<svg width="40.039" height="30.721" viewBox="0 0 10.594 8.128" xml:space="preserve" xmlns="http://www.w3.org/2000/svg"><g style="display:inline;opacity:.994"><path style="font-variation-settings:normal;opacity:1;fill:#6366f1;fill-opacity:1;stroke:#000;stroke-width:.265;stroke-linecap:round;stroke-linejoin:round;stroke-miterlimit:4;stroke-dasharray:none;stroke-dashoffset:0;stroke-opacity:1;stop-color:#000;stop-opacity:1" d="M138.837 133.823c3.53.993 6.984 1.128 10.33-.024-.789-3.113-3.422-4.814-5.33-4.65-1.068.128-4.202-.598-5 4.674z" transform="translate(-138.705 -129.006)"/><path style="font-variation-settings:normal;opacity:1;fill:#4f54eb;fill-opacity:1;stroke:#000;stroke-width:.265;stroke-linecap:butt;stroke-linejoin:round;stroke-miterlimit:4;stroke-dasharray:none;stroke-dashoffset:0;stroke-opacity:1;stop-color:#000;stop-opacity:1" d="M139.372 136.973c.416.26 1.821-1.352 4.343-1.375 2.94-.026 4.122 1.45 4.839.933.545-1.213.327-2.613.327-2.613-1.258-.254-2.17-1.02-5.29-.953-2.34.05-3.63.872-4.448.969-.38-.242.078 2.92.229 3.04z" transform="translate(-138.705 -129.006)"/></g></svg>