<svg width="53.818" height="28.906" viewBox="0 0 14.239 7.648" xml:space="preserve" xmlns="http://www.w3.org/2000/svg"><g style="display:inline;opacity:.994"><path style="font-variation-settings:normal;opacity:1;fill:#0f766e;fill-opacity:1;stroke:#000;stroke-width:.265;stroke-linecap:round;stroke-linejoin:round;stroke-miterlimit:4;stroke-dasharray:none;stroke-dashoffset:0;stroke-opacity:1;stop-color:#000;stop-opacity:1" d="M138.824 132.941c3.53.994 6.984 1.128 10.33-.024-.617-2.435.025-5.587-2.082-5.575-.524.003-5.36.046-5.776.082-2.324-.006-1.674.245-2.472 5.517z" transform="translate(-136.942 -127.21)"/><path style="font-variation-settings:normal;opacity:1;fill:#0f766e;fill-opacity:1;stroke:#000;stroke-width:.265;stroke-linecap:butt;stroke-linejoin:round;stroke-miterlimit:4;stroke-dasharray:none;stroke-dashoffset:0;stroke-opacity:1;stop-color:#000;stop-opacity:1" d="M137.074 133.08c.417.26 4.462 1.667 6.984 1.644 2.94-.026 6.274-1.414 6.99-1.93-1.109-.438-2.111-1.059-2.111-1.059-1.243.265-2.157.678-5.278.745-2.34.05-3.836-.639-4.654-.542-.527.463-.91.68-1.93 1.141z" transform="translate(-136.942 -127.21)"/><path style="fill:#854d0e;fill-opacity:1;stroke:#000;stroke-width:.132292;stroke-linecap:butt;stroke-linejoin:miter;stroke-dasharray:none;stroke-opacity:1" d="M215.921 8.007c3.32.282 6.563.168 9.79-.03l-.026-.662c-3.196.21-6.412.281-9.674.006z" transform="translate(-213.785 -3.873)"/></g></svg>