<svg width="42.368" height="36.121" viewBox="0 0 11.21 9.557" xml:space="preserve" xmlns="http://www.w3.org/2000/svg"><g style="display:inline;opacity:.994"><path style="font-variation-settings:normal;opacity:1;fill:#44403c;fill-opacity:1;stroke:#000;stroke-width:.265;stroke-linecap:round;stroke-linejoin:round;stroke-miterlimit:4;stroke-dasharray:none;stroke-dashoffset:0;stroke-opacity:1;stop-color:#000;stop-opacity:1" d="M138.824 132.941c3.53.994 5.531.805 8.876-.347-.617-2.435 1.48-7.983-.627-7.972-.524.003-5.36.046-5.775.082-2.325-.006-.534 2.898-1.332 8.17z" transform="translate(-138.065 -124.49)"/><path style="font-variation-settings:normal;opacity:1;fill:#44403c;fill-opacity:1;stroke:#000;stroke-width:.265;stroke-linecap:butt;stroke-linejoin:round;stroke-miterlimit:4;stroke-dasharray:none;stroke-dashoffset:0;stroke-opacity:1;stop-color:#000;stop-opacity:1" d="M138.198 133.551c.416.26 3.039.383 5.56.36 2.941-.027 4.668.089 5.385-.428-.26-.671-.154-1.27-.154-1.27-1.243.266-2.209.2-5.33.267-2.34.05-4.444-.298-5.263-.201.026.858-.088.563-.198 1.272z" transform="translate(-138.065 -124.49)"/><path style="fill:#fb7185;fill-opacity:1;stroke:#000;stroke-width:.132292;stroke-linecap:butt;stroke-linejoin:miter;stroke-dasharray:none;stroke-opacity:1" d="M217.014 8.162c3.32.282 4.165.199 7.391 0l.033-.438c-3.197.211-4.143.289-7.406.014z" transform="translate(-214.908 -1.153)"/><path style="fill:#fb7185;fill-opacity:1;stroke:#000;stroke-width:.132292;stroke-linecap:butt;stroke-linejoin:miter;stroke-dasharray:none;stroke-opacity:1" d="M140.193 130.804c3.32.282 4.164.2 7.391.001l.032-.438c-3.196.21-4.142.288-7.405.014z" transform="translate(-138.065 -124.49)"/></g></svg>