<svg width="54.907" height="41.011" viewBox="0 0 14.528 10.851" xmlns="http://www.w3.org/2000/svg"><g style="display:inline;opacity:.996;stroke-width:1.00007;stroke-miterlimit:4;stroke-dasharray:none"><path style="display:inline;opacity:.995;fill:#edf1e9;fill-opacity:1;fill-rule:nonzero;stroke:#2f2f2f;stroke-width:1.00007;stroke-linecap:butt;stroke-linejoin:miter;stroke-miterlimit:4;stroke-dasharray:none;stroke-opacity:1" d="M97.6 219.79c2.865 1.502 7.298.388 8.16-3 .678-1.564-1.572-2.944-.375-4.232 1.518-3.361-.407-7.187-3.119-9.295-2.986-2.609-7.817-3.442-11.091-.878-1.166.177-2.469-1.636-3.924-1.781-2.684-.666-5.756-.209-7.92 1.6-1.328.884-3.329-.06-4.893.717-3.15.735-6.2 2.798-7.2 6.003-1.224 3.612-.383 8.076 2.543 10.636 1.215.938 2.916 1.502 4.399.883-.848 2.075-5.517 6.362-4.642 8.682 13.05-7.734 18.939-4.223 28.79-.332 2.481-1.427 1.294-1.6.589-2.493-.857-1.771-1.096-4.572-1.317-6.51z" transform="translate(-23.903 -72.158) scale(.36113)"/><path style="display:inline;fill:none;fill-opacity:1;stroke:#2f2f2f;stroke-width:1.00007;stroke-linecap:butt;stroke-linejoin:miter;stroke-miterlimit:4;stroke-dasharray:none;stroke-opacity:1" d="M91.757 210.736c1.436 2.438 4.367 3.606 7.115 3.279.973-.069 1.937-.24 2.888-.455M80.477 210c2.192 1.994 5.303 3.846 8.343 2.752 1.91-.684 3.348-2.244 4.486-3.866m-21.47 3.633c2.177 1.274 5.227 1.829 7.288.03a6.91 6.91 0 0 0 .99-1m24.753 1.893-1.371 1.307m-5.946-.472c-.86 4.52-.097 4.04.05 5.513m-23.62 1.1c1.068-2.274 1.492-4.908.637-7.324" transform="translate(-23.903 -72.158) scale(.36113)"/></g></svg>