<svg width="25.359" height="10.041" viewBox="0 0 6.71 2.657" xml:space="preserve" xmlns="http://www.w3.org/2000/svg"><g style="display:inline;opacity:.994"><path style="opacity:.994;fill:#44382b;fill-opacity:1;stroke:#000;stroke-width:.264583px;stroke-linecap:butt;stroke-linejoin:miter;stroke-opacity:1" d="M94.645 99.528c.013 1.469-2.43 2.305-3.376 2.288-1.121-.137-3.131-.677-3.065-1.794-.11-.373 1.802.337 3.425.237 1.555-.096 2.937-1.164 3.016-.73z" transform="translate(-88.068 -99.292)"/><path style="opacity:.994;fill:#cfcfcf;fill-opacity:1;stroke:#262626;stroke-width:.065;stroke-linecap:butt;stroke-linejoin:miter;stroke-dasharray:none;stroke-opacity:1" d="M91.4 100.973c-.168.122-.666-.083-.767-.144-.128-.053-.15-.341-.106-.455.177-.008.66.083 1.023.02.195-.029-.01.464-.15.579z" transform="translate(-88.068 -99.292)"/><path style="opacity:.994;fill:#cfcfcf;fill-opacity:1;stroke:#262626;stroke-width:.065;stroke-linecap:butt;stroke-linejoin:miter;stroke-dasharray:none;stroke-opacity:1" d="M92.423 100.845c-.169.122-.676.197-.777.137-.128-.054.035-.411.025-.594.177-.008.692-.007 1.01-.157.03.21-.079.466-.258.614z" transform="translate(-88.068 -99.292)"/></g></svg>