<svg width="74.855" height="59.47" viewBox="0 0 19.805 15.735" xmlns="http://www.w3.org/2000/svg"><g style="opacity:.994"><path style="fill:#262626;fill-opacity:1;stroke:#000;stroke-width:.065;stroke-linecap:butt;stroke-linejoin:miter;stroke-miterlimit:4;stroke-dasharray:none;stroke-opacity:1" d="m151.115 27.196 17.16-.172a4.36 4.36 0 0 1 .486 1.841l-18.102.116c-.027-.656.113-1.239.456-1.785zM150.575 29.717l18.346-.163c.157.566.295 1.142.24 1.812l-18.718.072c-.026-.62-.048-1.109.132-1.721zM150.539 32.116l18.632-.179c.117.52.097 1.023.024 1.52l-18.523.15c-.106-.587-.195-.827-.133-1.491zM150.277 40.017c7.055 1.897 13.45 1.856 19.182-.137.156.567.342 1.388.287 2.058-6.567.674-13.286 1.407-19.727-.267-.025-.62.079-1.042.258-1.654z" transform="translate(-149.983 -26.991)"/></g></svg>